<svg id="Layer_1" data-name="Layer 1" xmlns="http://www.w3.org/2000/svg" viewBox="0 0 254 320"><g id="Asset_Empty_empty_music_note" data-name="Asset Empty empty music note"><path id="note" d="M73.83,225.49V44.81c0-9.28,6.69-13.26,14.34-14.77L232.77,1C246-1.59,254-.08,254,15.07v221.6c0,41.66-33.47,50.56-54.51,50.56-20.85,0-38.06-15.9-38.06-36.17,0-24.43,18.55-34.66,42.08-39.39l21.23-4.74c8.6-1.7,11.28-8,11.28-14.58l.19-106.06c0-7.39-3.44-10-11.86-8.15l-122.6,24.62c-7.07,1.14-9.18,3.22-9.18,11.56V268.48c0,41.86-34,51.52-55.08,51.52C16.26,320,0,303.9,0,283.83c0-24.82,18.74-35,41.12-40.35l22.76-4.54C71,237.23,73.83,231.74,73.83,225.49Z"/></g></svg>