<?xml version="1.0" encoding="UTF-8"?>
<svg width="120px" height="52px" viewBox="0 0 120 52" version="1.1" xmlns="http://www.w3.org/2000/svg" xmlns:xlink="http://www.w3.org/1999/xlink">
    <title>assets/hdr</title>
    <g id="assets/hdr" stroke="none" stroke-width="1" fill="none" fill-rule="evenodd">
        <path d="M15.3833112,-6.21504185e-16 L104.616689,6.21504185e-16 C109.965801,-3.61111829e-16 111.905519,0.556953667 113.861074,1.60279622 C115.81663,2.64863878 117.351361,4.18337022 118.397204,6.13892578 C119.443046,8.09448133 120,10.0341988 120,15.3833112 L120,36.6166888 C120,41.9658012 119.443046,43.9055187 118.397204,45.8610742 C117.351361,47.8166298 115.81663,49.3513612 113.861074,50.3972038 C111.905519,51.4430463 109.965801,52 104.616689,52 L15.3833112,52 C10.0341988,52 8.09448133,51.4430463 6.13892578,50.3972038 C4.18337022,49.3513612 2.64863878,47.8166298 1.60279622,45.8610742 C0.556953667,43.9055187 2.4074122e-16,41.9658012 -4.14336123e-16,36.6166888 L4.14336123e-16,15.3833112 C-2.4074122e-16,10.0341988 0.556953667,8.09448133 1.60279622,6.13892578 C2.64863878,4.18337022 4.18337022,2.64863878 6.13892578,1.60279622 C8.09448133,0.556953667 10.0341988,3.61111829e-16 15.3833112,-6.21504185e-16 Z M43.7790625,40 L43.7790625,11.8164062 L37.880625,11.8164062 L37.880625,23.2617188 L25.1853125,23.2617188 L25.1853125,11.8164062 L19.286875,11.8164062 L19.286875,40 L25.1853125,40 L25.1853125,28.125 L37.880625,28.125 L37.880625,40 L43.7790625,40 Z M48.1815625,11.8164062 L59.0409375,11.8164062 C67.4979687,11.8164062 72.4784375,16.8554688 72.4784375,25.8007812 C72.4784375,34.7460938 67.4979687,40 59.0409375,40 L48.1815625,40 L48.1815625,11.8164062 Z M54.08,16.6796875 L54.08,35.1171875 L58.3378125,35.1171875 C63.61125,35.1171875 66.4628125,31.9140625 66.4628125,25.8203125 C66.4628125,19.921875 63.533125,16.6796875 58.3378125,16.6796875 L54.08,16.6796875 Z M81.8809375,16.4257812 L81.8809375,25.4101562 L87.0567188,25.4101562 C90.0254688,25.4101562 91.76375,23.7109375 91.76375,20.9179688 C91.76375,18.1835938 89.9278125,16.4257812 86.998125,16.4257812 L81.8809375,16.4257812 Z M81.8809375,29.6875 L81.8809375,40 L75.9825,40 L75.9825,11.8164062 L87.623125,11.8164062 C94.1075,11.8164062 97.8184375,15.234375 97.8184375,20.8007812 C97.8184375,24.4140625 95.9434375,27.5390625 92.70125,28.8085938 L98.63875,40 L91.9590625,40 L86.7051563,29.6875 L81.8809375,29.6875 Z" id="HDR" fill="#000000"></path>
    </g>
</svg>