<?xml version="1.0" encoding="UTF-8"?>
<svg width="152px" height="72px" viewBox="0 0 152 72" version="1.1" xmlns="http://www.w3.org/2000/svg" xmlns:xlink="http://www.w3.org/1999/xlink">
    <title>Assets/Windows/product_header_DolbyAudio</title>
    <g id="Assets/Windows/product_header_DolbyAudio" stroke="none" stroke-width="1" fill="none" fill-rule="evenodd">
        <path d="M109.15793,44.6395808 C110.599203,44.6395808 111.927876,44.8653289 113.143562,45.3160493 C114.358859,45.7675454 115.409916,46.4091044 116.295181,47.2418898 C117.180834,48.0742874 117.871573,49.0854992 118.366234,50.2731978 C118.861283,51.4620602 119.108614,52.7932757 119.108614,54.268008 C119.108614,55.7078308 118.861283,57.0223673 118.366234,58.210066 C117.871573,59.3989283 117.180834,60.4217765 116.295181,61.2809381 C115.409916,62.1397117 114.358859,62.8076467 113.143562,63.2843553 C111.927876,63.7614518 110.599203,64 109.15793,64 C107.733741,64 106.418657,63.7614518 105.211902,63.2843553 C104.004759,62.8076467 102.962631,62.1397117 102.085909,61.2809381 C101.209186,60.4217765 100.523106,59.3989283 100.028445,58.210066 C99.5330079,57.0223673 99.2860657,55.7078308 99.2860657,54.268008 C99.2860657,52.7932757 99.5330079,51.4620602 100.028445,50.2731978 C100.523106,49.0854992 101.209186,48.0742874 102.085909,47.2418898 C102.962631,46.4091044 104.004759,45.7675454 105.211902,45.3160493 C106.418657,44.8653289 107.733741,44.6395808 109.15793,44.6395808 Z M50.6386836,44.6394256 L50.6386836,56.2561426 C50.6386836,56.8212886 50.7112908,57.38178 50.8572818,57.9372288 C51.0032728,58.4934535 51.2447792,58.9899441 51.5825775,59.4270886 C51.9199875,59.864621 52.3668908,60.2199221 52.9232873,60.4933798 C53.4796838,60.7664496 54.1680935,60.9033725 54.9892928,60.9033725 C55.8101039,60.9033725 56.4985135,60.7664496 57.05491,60.4933798 C57.6113065,60.2199221 58.0578215,59.864621 58.3956198,59.4270886 C58.7330299,58.9899441 58.9745362,58.4934535 59.1209155,57.9372288 C59.2665182,57.38178 59.339902,56.8212886 59.339902,56.2561426 L59.339902,44.6394256 L62.7873861,44.6394256 L62.7873861,56.3930654 C62.7873861,57.5598184 62.5862602,58.6121458 62.1855615,59.5504355 C61.7840863,60.4891131 61.2366201,61.2858254 60.5435511,61.9421239 C59.8504822,62.5980346 59.0292829,63.1038344 58.081118,63.4591355 C57.1325648,63.8144366 56.1016976,63.9920872 54.9892928,63.9920872 C53.8761115,63.9920872 52.8456325,63.8144366 51.8974676,63.4591355 C50.9485262,63.1038344 50.1230559,62.5980346 49.4210566,61.9421239 C48.7186691,61.2858254 48.1712029,60.4891131 47.7794345,59.5504355 C47.3868896,58.6121458 47.1911996,57.5598184 47.1911996,56.3930654 L47.1911996,44.6394256 L50.6386836,44.6394256 Z M75.1836131,44.639348 C76.4420089,44.639348 77.7097232,44.8034227 78.9867561,45.131572 C80.2634007,45.4593333 81.4126915,46.0015942 82.4346284,46.7575788 C83.4557888,47.5143391 84.2859184,48.5069324 84.924629,49.7372983 C85.5629513,50.9672762 85.8821125,52.493597 85.8821125,54.3158728 C85.8821125,56.0105349 85.5629513,57.4685882 84.924629,58.689257 C84.2859184,59.9103136 83.4557888,60.912992 82.4346284,61.6961283 C81.4126915,62.4800405 80.2634007,63.0587624 78.9867561,63.4319061 C77.7097232,63.8058256 76.4420089,63.9920096 75.1836131,63.9920096 L68.3158242,63.9920096 L68.3158242,44.639348 L75.1836131,44.639348 Z M94.306608,44.6396971 L94.306608,63.9923587 L90.859124,63.9923587 L90.859124,44.6396971 L94.306608,44.6396971 Z M36.30132,44.6396584 L44.6464912,63.991932 L40.7062875,63.991932 L38.9008138,59.5638563 L30.5005077,59.5638563 L28.7493924,63.991932 L24.8911145,63.991932 L33.3185998,44.6396584 L36.30132,44.6396584 Z M74.6365352,47.5915279 L71.7633082,47.5915279 L71.7633082,60.9855261 L74.6365352,60.9855261 C75.5299534,60.9855261 76.4241483,60.8804098 77.3175665,60.6709528 C78.2113731,60.4614958 79.0185945,60.1061947 79.7396192,59.6046616 C80.4598673,59.1039042 81.0481023,58.4251085 81.5039359,57.5682742 C81.9597694,56.7118279 82.1880745,55.6276941 82.1880745,54.3158728 C82.1880745,52.9307415 81.9597694,51.8008374 81.5039359,50.9261606 C81.0481023,50.0518716 80.4598673,49.3684213 79.7396192,48.8761973 C79.0185945,48.3843613 78.2113731,48.0472907 77.3175665,47.8645977 C76.4241483,47.6826804 75.5299534,47.5915279 74.6365352,47.5915279 Z M109.184721,47.786478 C108.265676,47.786478 107.43477,47.9536557 106.692002,48.2868475 C105.948458,48.620815 105.309359,49.0796809 104.775094,49.6634453 C104.240441,50.2479854 103.827317,50.9314358 103.534947,51.7161237 C103.242577,52.5004238 103.096586,53.3514397 103.096586,54.2687837 C103.096586,55.2198736 103.242577,56.0918353 103.534947,56.8842808 C103.827317,57.6767264 104.244712,58.3656072 104.787519,58.9489836 C105.330326,59.5331359 105.973307,59.9877351 106.716852,60.3131692 C107.45962,60.6386033 108.28276,60.8011264 109.184721,60.8011264 C110.086681,60.8011264 110.913316,60.6386033 111.665015,60.3131692 C112.416713,59.9877351 113.063577,59.5331359 113.606384,58.9489836 C114.149579,58.3656072 114.566974,57.6767264 114.859344,56.8842808 C115.151326,56.0918353 115.297705,55.2198736 115.297705,54.2687837 C115.297705,53.3514397 115.151326,52.5004238 114.859344,51.7161237 C114.566974,50.9314358 114.15385,50.2479854 113.619197,49.6634453 C113.084544,49.0796809 112.441562,48.620815 111.690252,48.2868475 C110.938554,47.9536557 110.102989,47.786478 109.184721,47.786478 Z M34.7140562,48.7395848 L31.6769777,56.6116765 L37.6963881,56.6116765 L34.7140562,48.7395848 Z M128.329265,12.6084493 L133.850132,25.0086905 L139.37061,12.6084493 L144,12.6084493 C143.058047,14.7107768 133.034756,37.0881523 133.024273,37.1110374 C131.791892,39.8700513 128.541651,41.1186477 125.787236,39.890997 L125.787236,39.890997 L124.319172,39.2366379 L124.312183,39.2339227 L124.311795,39.2335348 L124.837906,38.0551454 L126.02253,35.3981448 L126.630567,35.6688873 C127.766268,36.1754629 129.106201,35.6607417 129.614452,34.52308 C129.619111,34.5133829 129.621829,34.5029101 129.625711,34.493213 L129.625711,34.493213 L131.32208,30.6651927 L131.377992,30.5426216 L131.535243,30.2024479 L123.700263,12.6084493 L128.329265,12.6084493 Z M100.812526,4.00504248 L100.812526,31.9617314 L96.574516,31.9617314 L96.574516,4.00504248 L100.812526,4.00504248 Z M108.619472,4.00515885 L108.619472,14.3476792 C110.190428,13.2499695 112.099571,12.603368 114.158199,12.603368 C119.500071,12.603368 123.844468,16.9433943 123.844468,22.2795048 C123.844468,27.6160033 119.500071,31.9560295 114.158199,31.9560295 C112.099571,31.9560295 110.190428,31.3094281 108.619472,30.2117183 L108.619472,30.2117183 L108.619472,31.9618478 L104.373696,31.9618478 L104.373308,4.00515885 L108.619472,4.00515885 Z M84.1462175,12.6018165 C89.48809,12.6018165 93.8324868,16.9422306 93.8324868,22.2783412 C93.8324868,27.6148396 89.48809,31.9548659 84.1462175,31.9548659 C78.804345,31.9548659 74.4599482,27.6148396 74.4599482,22.2783412 C74.4599482,16.9422306 78.804345,12.6018165 84.1462175,12.6018165 Z M4.12385722,4.00042667 C11.8244937,4.00042667 18.1017181,10.271336 18.1017181,17.9642255 C18.1017181,25.657115 11.8244937,31.9280244 4.12385722,31.9280244 L0,31.9280244 L0,4.00042667 L4.12385722,4.00042667 Z M39.7696155,4.00042667 L39.7696155,31.9280244 L35.6457583,31.9280244 C27.9451218,31.9280244 21.6678975,25.657115 21.6678975,17.9642255 C21.6678975,10.271336 27.9451218,4.00042667 35.6457583,4.00042667 L39.7696155,4.00042667 Z M58.3313217,4 C66.0389471,4 72.3091825,10.2643153 72.3091825,17.9641867 C72.3091825,25.6640582 66.0389471,31.9279856 58.3313217,31.9279856 L58.3313217,31.9279856 L48.2350351,31.9279856 L48.2350351,4 Z M114.158199,16.4096668 C111.592097,16.4096668 109.394855,18.0767893 108.619472,20.4021496 C108.426499,20.9808715 108.318171,21.5987696 108.318171,22.2442074 C108.318171,22.8853785 108.426499,23.5025009 108.619472,24.0816106 C109.389807,26.3930072 111.566859,28.0783602 114.158199,28.0783602 C117.3634,28.0783602 119.998615,25.4814815 119.998615,22.2442074 C119.998615,19.0422308 117.3634,16.4096668 114.158199,16.4096668 Z M84.1462175,16.4085032 C80.9410163,16.4085032 78.3058013,19.0053819 78.3058013,22.2426559 C78.3058013,25.4446326 80.9052951,28.0771965 84.1462175,28.0771965 C87.3510304,28.0771965 89.9862454,25.4803178 89.9862454,22.2426559 C89.9862454,19.0410671 87.3510304,16.4085032 84.1462175,16.4085032 Z M58.3313217,8.23413412 L52.4730449,8.23413412 L52.4730449,27.6942394 L58.3313217,27.6942394 C63.6972671,27.6942394 68.0711728,23.3243461 68.0711728,17.9641867 C68.0711728,12.6040274 63.6972671,8.23413412 58.3313217,8.23413412 L58.3313217,8.23413412 Z" id="Shape" fill="#FFFFFF"></path>
    </g>
</svg>