<svg id="Layer_1" data-name="Layer 1" xmlns="http://www.w3.org/2000/svg" viewBox="0 0 100 100"><g id="SmartPlaylist"><rect width="100" height="100" style="fill:#fff"/><rect id="Fill---RGB-245_-245_-245" data-name="Fill---RGB-245 -245 -245" width="100" height="100" style="fill:#f5f5f5"/><path id="gear" d="M52.27,73.43a3.08,3.08,0,0,0,3.12-2.49l1-4.33,1.08-.39,3.75,2.34a3,3,0,0,0,4-.45L68.33,65a3,3,0,0,0,.47-4l-2.36-3.75.38-1.06,4.34-1a3.11,3.11,0,0,0,2.49-3.13V47.6a3.08,3.08,0,0,0-2.49-3.12l-4.29-1-.43-1.06,2.38-3.75a3,3,0,0,0-.47-4L65.21,31.5a3.08,3.08,0,0,0-4-.45l-3.75,2.34L56.38,33l-1-4.33a3.07,3.07,0,0,0-3.12-2.5H47.73a3.06,3.06,0,0,0-3.12,2.5l-1,4.33-1.12.41-3.75-2.34a3.06,3.06,0,0,0-4,.45l-3.16,3.17a3,3,0,0,0-.45,4l2.36,3.75-.43,1.06-4.27,1a3.06,3.06,0,0,0-2.49,3.12v4.47a3.11,3.11,0,0,0,2.49,3.13l4.31,1,.39,1.06L31.18,61a3,3,0,0,0,.47,4l3.14,3.14a3,3,0,0,0,4,.45l3.75-2.34,1.1.39,1,4.33a3.06,3.06,0,0,0,3.12,2.49ZM52,70.72H48a.81.81,0,0,1-.9-.72l-1.3-5.46a15.16,15.16,0,0,1-3.32-1.33l-4.77,3A.91.91,0,0,1,36.48,66l-2.72-2.74a.84.84,0,0,1-.14-1.19v0l2.94-4.76A16.87,16.87,0,0,1,35.29,54l-5.48-1.3a.84.84,0,0,1-.77-.9V47.87a.86.86,0,0,1,.77-.94l5.46-1.28a18.82,18.82,0,0,1,1.28-3.32L33.6,37.59a.88.88,0,0,1,.12-1.24h0l2.74-2.72a.93.93,0,0,1,1.25-.15l4.72,2.92a20.56,20.56,0,0,1,3.39-1.33l1.28-5.46a.82.82,0,0,1,.89-.74h4a.81.81,0,0,1,.91.69.09.09,0,0,1,0,.05l1.3,5.51a15.79,15.79,0,0,1,3.32,1.3l4.74-2.94a.94.94,0,0,1,1.26.15l2.74,2.72a.88.88,0,0,1,.11,1.24h0l-2.94,4.74a17.2,17.2,0,0,1,1.3,3.32l5.46,1.28a.82.82,0,0,1,.74.91v3.94a.82.82,0,0,1-.71.92h0L64.71,54a15.71,15.71,0,0,1-1.3,3.31l2.94,4.76a.89.89,0,0,1-.11,1.21L63.5,66a.94.94,0,0,1-1.24.16l-4.76-3a14.08,14.08,0,0,1-3.3,1.33L52.9,70a.81.81,0,0,1-.89.72ZM50,58.39a8.57,8.57,0,1,0-8.58-8.61A8.57,8.57,0,0,0,50,58.39Zm0-2.7a5.89,5.89,0,1,1,5.86-5.92h0A5.93,5.93,0,0,1,50,55.69Z" style="fill:#3c3c43;fill-opacity:0.18000000715255737"/></g></svg>