<svg id="Layer_1" data-name="Layer 1" xmlns="http://www.w3.org/2000/svg" viewBox="0 0 36 36"><g id="Asset_Track_track_MIssingArtwork_Music_onDark" data-name="Asset Track track MIssingArtwork Music onDark"><rect id="Rectangle" width="36" height="36" style="fill:#6e6e6e"/><path id="note" d="M14.1,22V10.8c0-.6.4-.8.9-.9l8.8-1.8c.8-.2,1.3-.1,1.3.9V22.7a3,3,0,0,1-2.88,3.11,3,3,0,0,1-.42,0,2.24,2.24,0,0,1-2.3-2.18v0c0-1.5,1.1-2.1,2.6-2.4l1.3-.3a.86.86,0,0,0,.7-.9V13.4c0-.5-.2-.6-.7-.5l-7.5,1.5c-.4.1-.6.2-.6.7v9.5a3.1,3.1,0,0,1-3,3.21,3,3,0,0,1-.42,0,2.24,2.24,0,0,1-2.3-2.18v0c0-1.5,1.1-2.2,2.5-2.5l1.4-.3A.85.85,0,0,0,14.1,22Z" style="fill:#ebebf5;fill-opacity:0.30000001192092896"/></g></svg>