<svg id="Layer_1" data-name="Layer 1" xmlns="http://www.w3.org/2000/svg" viewBox="0 0 64 36"><g id="Asset_Track_track_MissingArtwork_Video_onLight" data-name="Asset Track track MissingArtwork Video onLight"><rect id="Rectangle" width="64" height="36" style="fill:#e9e9e9"/><path id="tv" d="M22.3,8H41.7A2.1,2.1,0,0,1,44,10.4V21.7a2.08,2.08,0,0,1-2.3,2.4H22.3A2.1,2.1,0,0,1,20,21.7V10.4A2.13,2.13,0,0,1,21.83,8,2.46,2.46,0,0,1,22.3,8Zm.6,2a.8.8,0,0,0-.9.69.74.74,0,0,0,0,.21V21.2a.8.8,0,0,0,.69.9H41.2a.8.8,0,0,0,.9-.69.74.74,0,0,0,0-.21V10.9a.8.8,0,0,0-.69-.9H22.9ZM39,26a1,1,0,0,1-.9,1H26.9a1,1,0,0,1,0-2H38.1A1,1,0,0,1,39,26Z" style="fill-opacity:0.15000000596046448"/></g></svg>