<?xml version="1.0" encoding="UTF-8"?>
<svg width="92px" height="52px" viewBox="0 0 92 52" version="1.1" xmlns="http://www.w3.org/2000/svg" xmlns:xlink="http://www.w3.org/1999/xlink">
    <title>assets/cc</title>
    <g id="assets/cc" stroke="none" stroke-width="1" fill="none" fill-rule="evenodd">
        <g id="convert-copy-to-outlines" transform="translate(0.000000, -0.000000)">
            <path d="M15.3833112,2 L76.6166888,2 C81.3994068,2 83.1618448,2.4272866 84.9178765,3.36642262 C86.5197398,4.22310849 87.7768915,5.48026019 88.6335774,7.0821235 C89.5727134,8.83815518 90,10.6005932 90,15.3833112 L90,15.3833112 L90,36.6166888 C90,41.3994068 89.5727134,43.1618448 88.6335774,44.9178765 C87.7768915,46.5197398 86.5197398,47.7768915 84.9178765,48.6335774 C83.1618448,49.5727134 81.3994068,50 76.6166888,50 L76.6166888,50 L15.3833112,50 C10.6005932,50 8.83815518,49.5727134 7.0821235,48.6335774 C5.48026019,47.7768915 4.22310849,46.5197398 3.36642262,44.9178765 C2.4272866,43.1618448 2,41.3994068 2,36.6166888 L2,36.6166888 L2,15.3833112 C2,10.6005932 2.4272866,8.83815518 3.36642262,7.0821235 C4.22310849,5.48026019 5.48026019,4.22310849 7.0821235,3.36642262 C8.83815518,2.4272866 10.6005932,2 15.3833112,2 L15.3833112,2 Z" id="Rectangle" stroke="#FFFFFF" stroke-width="4"></path>
            <g id="CC" transform="translate(19.113442, 11.328125)" fill="#FFFFFF" fill-rule="nonzero">
                <path d="M13.4179687,29.1601562 C20.234375,29.1601562 25.1757812,24.8828125 25.7226562,18.8867187 L25.7421875,18.671875 L20,18.671875 L19.9609375,18.8671875 C19.1992187,22.2070312 16.8164062,24.1601562 13.4179687,24.1601562 C8.90625,24.1601562 6.015625,20.4882812 6.015625,14.5507812 L6.015625,14.53125 C6.015625,8.6328125 8.90625,5 13.4179687,5 C16.9335937,5 19.2382812,7.03125 19.9023437,10.1367188 L19.9804687,10.46875 L25.7226562,10.46875 L25.703125,10.2929688 C25.15625,4.31640625 20.2539062,0 13.4179687,0 C5.1953125,0 0,5.46875 0,14.5507812 L0,14.5703125 C0,23.6523437 5.17578125,29.1601562 13.4179687,29.1601562 Z" id="Path"></path>
                <path d="M41.7693702,29.1601562 C48.5857764,29.1601562 53.5271827,24.8828125 54.0740577,18.8867187 L54.0935889,18.671875 L48.3514014,18.671875 L48.3123389,18.8671875 C47.5506202,22.2070312 45.1678077,24.1601562 41.7693702,24.1601562 C37.2576514,24.1601562 34.3670264,20.4882812 34.3670264,14.5507812 L34.3670264,14.53125 C34.3670264,8.6328125 37.2576514,5 41.7693702,5 C45.2849952,5 47.5896827,7.03125 48.2537452,10.1367188 L48.3318702,10.46875 L54.0740577,10.46875 L54.0545264,10.2929688 C53.5076514,4.31640625 48.6053077,0 41.7693702,0 C33.5467139,0 28.3514014,5.46875 28.3514014,14.5507812 L28.3514014,14.5703125 C28.3514014,23.6523437 33.5271827,29.1601562 41.7693702,29.1601562 Z" id="Path"></path>
            </g>
        </g>
    </g>
</svg>