<?xml version="1.0" encoding="UTF-8"?>
<svg width="auto" height="auto" viewBox="0 0 25 22" version="1.1" xmlns="http://www.w3.org/2000/svg" xmlns:xlink="http://www.w3.org/1999/xlink">
    <title>Common_Sense_onLight</title>
    <g id="Common_Sense_onLight" stroke="none" stroke-width="1" fill="none" fill-rule="evenodd">
        <path d="M19.5450644,11.5193133 C19.3562232,13.5021459 18.6008584,15.4849785 16.9957082,16.9957082 C15.3905579,18.6008584 13.3133047,19.4506438 11.0472103,19.4506438 C8.78111588,19.4506438 6.60944206,18.6008584 5.00429185,16.9957082 C3.39914163,15.3905579 2.54935622,13.2188841 2.54935622,10.9527897 C2.54935622,8.68669528 3.39914163,6.60944206 5.00429185,5.00429185 C6.60944206,3.39914163 8.78111588,2.45493562 11.0472103,2.45493562 C13.3133047,2.45493562 15.3905579,3.39914163 16.9957082,5.00429185 C17.27897,5.28755365 17.5622318,5.57081545 17.8454936,5.85407725 L19.4506438,3.87124464 C19.2618026,3.68240343 19.0729614,3.39914163 18.7896996,3.21030043 C16.7124464,1.13304721 13.9742489,-2.13162821e-14 11.0472103,-2.13162821e-14 C8.12017167,-2.13162821e-14 5.28755365,1.13304721 3.21030043,3.21030043 C1.13304721,5.28755365 5.32907052e-15,8.02575107 5.32907052e-15,10.9527897 C5.32907052e-15,13.8798283 1.13304721,16.7124464 3.21030043,18.7896996 C5.28755365,20.8669528 8.12017167,22 11.0472103,22 C13.9742489,22 16.7124464,20.8669528 18.7896996,18.7896996 C21.527897,16.0515021 22.472103,12.2746781 21.8111588,8.78111588 L19.5450644,11.5193133" id="path13066" fill="#2EA548" fill-rule="nonzero"></path>
        <path d="M12.0858369,15.7682403 L12.0858369,15.7682403 C10.1974249,15.7682403 9.06437768,14.5407725 8.87553648,14.2575107 L5.85407725,11.1416309 C5.38197425,10.6695279 5.38197425,9.91416309 5.85407725,9.53648069 C6.32618026,9.06437768 7.08154506,9.06437768 7.55364807,9.53648069 L10.5751073,12.7467811 L10.5751073,12.7467811 C10.5751073,12.7467811 11.2360515,13.4077253 12.0858369,13.4077253 C12.8412017,13.4077253 13.5965665,12.9356223 14.3519313,12.0858369 L22.944206,1.69957082 C23.3218884,1.22746781 24.0772532,1.13304721 24.5493562,1.51072961 C25.1158798,1.98283262 25.1158798,2.64377682 24.7381974,3.21030043 L16.0515021,13.6909871 C14.8240343,15.0128755 13.5021459,15.7682403 12.0858369,15.7682403" id="path13068" fill="#000000" fill-rule="nonzero"></path>
    </g>
</svg>