<?xml version="1.0" encoding="UTF-8"?>
<svg width="124px" height="52px" viewBox="0 0 124 52" version="1.1" xmlns="http://www.w3.org/2000/svg" xmlns:xlink="http://www.w3.org/1999/xlink">
    <title>DolbyAtmos124x52</title>
    <g id="DolbyAtmos124x52" stroke="none" stroke-width="1" fill="none" fill-rule="evenodd">
        <path d="M28.8977809,35.2213602 L36.0862836,52 L32.6926416,52 L31.1379189,48.1608482 L23.9026074,48.1608482 L22.3946936,52 L19.0712649,52 L26.3299809,35.2213602 L28.8977809,35.2213602 Z M48.9018794,35.2213602 L48.9018794,37.8267391 L43.7896837,37.8267391 L43.7896837,52 L40.8173214,52 L40.8173214,37.8267391 L35.7017823,37.8267391 L35.7017823,35.2213602 L48.9018794,35.2213602 Z M27.5302936,38.7747608 L24.9123413,45.5991725 L30.1,45.599 L27.5302936,38.7747608 Z M52.6098094,35.2213602 L57.250573,35.2213602 L61.5904225,47.1422291 L61.6606358,47.1422291 L65.950333,35.2213602 L70.6178445,35.2213602 L70.6178445,52 L67.6688867,52 L67.6688867,38.5159038 L67.6220778,38.5159038 L62.556691,52 L60.480384,52 L55.4852105,38.5159038 L55.4384016,38.5159038 L55.4384016,52 L52.6098094,52 L52.6098094,35.2213602 Z M74.1586,43.5652961 C74.1586,42.28782 74.3725834,41.1347298 74.7972066,40.1026636 C75.2218298,39.0739591 75.8136274,38.1965348 76.5692561,37.4737523 C77.3248847,36.7509697 78.22094,36.1962762 79.2607652,35.8063098 C80.3005905,35.4163434 81.4340335,35.2213602 82.6577507,35.2213602 C83.8981853,35.2213602 85.0416588,35.4163434 86.0881711,35.8063098 C87.1346833,36.1962762 88.040769,36.7543315 88.8030846,37.4737523 C89.5654003,38.1965348 90.1605414,39.0705974 90.5851646,40.1026636 C91.0097878,41.131368 91.2237711,42.28782 91.2237711,43.5652961 C91.2237711,44.8125162 91.0097878,45.9521593 90.5851646,46.9808637 C90.1605414,48.0095681 89.5654003,48.8970778 88.8030846,49.6433928 C88.040769,50.386346 87.1346833,50.9679338 86.0881711,51.3814326 C85.0416588,51.7949315 83.8981853,52 82.6577507,52 C81.43069,52 80.297247,51.7915697 79.2607652,51.3814326 C78.22094,50.9679338 77.3248847,50.3897078 76.5692561,49.6433928 C75.8136274,48.9004396 75.2218298,48.0129299 74.7972066,46.9808637 C74.3725834,45.9521593 74.1586,44.8125162 74.1586,43.5652961 Z M77.4419069,43.5652961 C77.4419069,44.388932 77.5689595,45.1453323 77.8197212,45.8311352 C78.0704829,46.5169382 78.4315798,47.1153349 78.8996683,47.6196018 C79.3677569,48.1272304 79.9194327,48.5205586 80.5613827,48.802948 C81.1999892,49.0853375 81.908809,49.2265322 82.6878421,49.2265322 C83.4668752,49.2265322 84.175695,49.0853375 84.824332,48.802948 C85.472969,48.5205586 86.0279882,48.1272304 86.4960768,47.6196018 C86.9641653,47.1119731 87.3219187,46.5169382 87.5760239,45.8311352 C87.8267857,45.1453323 87.9538383,44.388932 87.9538383,43.5652961 C87.9538383,42.7685544 87.8267857,42.0323248 87.5760239,41.3532454 C87.3252622,40.674166 86.9675088,40.0824929 86.5094508,39.5748642 C86.0480492,39.0672356 85.4963734,38.6705456 84.8477364,38.3814326 C84.1990994,38.0923196 83.4802491,37.9477631 82.6911856,37.9477631 C81.8987785,37.9477631 81.1832718,38.0923196 80.5446652,38.3814326 C79.9060587,38.6705456 79.3543829,39.0672356 78.8929814,39.5748642 C78.4315798,40.0824929 78.0771699,40.674166 77.8264082,41.3532454 C77.565616,42.0356866 77.4419069,42.7719162 77.4419069,43.5652961 Z M102.989511,38.9798293 C102.691941,38.5898629 102.270661,38.2637704 101.725672,38.0015516 C101.180683,37.7393328 100.632351,37.6082234 100.080675,37.6082234 C99.7530132,37.6082234 99.4253512,37.6485648 99.0976892,37.7326093 C98.7700272,37.8166537 98.4724567,37.9410396 98.201634,38.1158521 C97.9341548,38.2873028 97.7134845,38.512542 97.5429665,38.7915697 C97.3724486,39.0705974 97.2855178,39.4034135 97.2855178,39.7933799 C97.2855178,40.1530903 97.3590746,40.4590122 97.5095316,40.7145074 C97.6599887,40.9700026 97.8639415,41.1851565 98.1247337,41.3666925 C98.3855259,41.5482286 98.7031574,41.7028704 99.0742848,41.8373416 C99.4454121,41.9718128 99.8566614,42.1062839 100.304689,42.2407551 C100.812899,42.4054823 101.337827,42.5937419 101.882816,42.8021722 C102.427805,43.0139643 102.925985,43.2896302 103.380699,43.6325317 C103.835414,43.9787949 104.206541,44.4124644 104.497425,44.936902 C104.788309,45.4613395 104.932079,46.1135247 104.932079,46.8934575 C104.932079,47.7473494 104.774935,48.4936643 104.46399,49.1290406 C104.149702,49.7677786 103.731766,50.295578 103.210181,50.7158004 C102.688597,51.1360228 102.076738,51.45203 101.377949,51.6604603 C100.675816,51.8688906 99.9402486,51.9764675 99.164559,51.9764675 C98.1347642,51.9764675 97.1283738,51.7848461 96.1453879,51.4016033 C95.1624019,51.0183605 94.3566209,50.4535816 93.7313884,49.7039048 L95.7441691,47.8145849 C96.1320139,48.3558314 96.6502548,48.7827773 97.2988918,49.0954228 C97.9475288,49.41143 98.5861353,49.5660719 99.2113679,49.5660719 C99.5390298,49.5660719 99.8733788,49.5257305 100.217758,49.4416861 C100.562138,49.3610034 100.869739,49.2198086 101.147248,49.0248254 C101.421415,48.8298423 101.645428,48.5877942 101.81929,48.2953194 C101.989808,48.0028446 102.076738,47.6397724 102.076738,47.2061029 C102.076738,46.7858805 101.979777,46.4396173 101.785855,46.1605896 C101.591932,45.8849237 101.33114,45.6428756 101.003478,45.4411689 C100.675816,45.2394621 100.287972,45.0612878 99.8399439,44.9133695 C99.3919163,44.7654513 98.9238278,44.6074476 98.4323348,44.4427205 C97.9542158,44.2914404 97.4794402,44.1132661 97.0013212,43.901474 C96.5232022,43.6930437 96.0952355,43.414016 95.7140777,43.0711146 C95.3329199,42.7282131 95.0253188,42.3046289 94.7845876,41.800362 C94.5471998,41.2994569 94.4268342,40.674166 94.4268342,39.9244893 C94.4268342,39.1143005 94.5940087,38.4184122 94.9283576,37.8334626 C95.2627066,37.2485131 95.7040472,36.7644169 96.2490361,36.3845358 C96.7940249,36.001293 97.4125704,35.7189035 98.1046728,35.5306439 C98.7967752,35.3423843 99.5022515,35.2482545 100.217758,35.2482545 C101.023539,35.2482545 101.839351,35.3894492 102.665193,35.6752004 C103.491035,35.9609516 104.213228,36.3878976 104.821743,36.9560383 L102.989511,38.9798293 Z M0,0 L3.55078599,0 C10.1809259,0 15.5873487,5.4359969 15.5873487,12.102405 C15.5873487,18.768813 10.1809259,24.2048099 3.55078599,24.2048099 L0,24.2048099 L0,0 Z M34.2473643,24.2048099 L30.6965783,24.2048099 C24.0664384,24.2048099 18.6600156,18.768813 18.6600156,12.102405 C18.6600156,5.4359969 24.0664384,1.42108547e-14 30.6965783,1.42108547e-14 L34.2473643,1.42108547e-14 L34.2473643,24.2048099 Z M50.2325882,0 L41.5395152,0 L41.5395152,24.2048099 L50.2325882,24.2048099 C56.8694152,24.2048099 62.2691509,18.7755366 62.2691509,12.102405 C62.2691509,5.42927334 56.8694152,0 50.2325882,0 Z M50.2325882,20.5337471 L47.7584059,20.5337471 L45.1872624,20.5337471 L45.1872624,3.66770106 L47.7584059,3.66770106 L50.2325882,3.66770106 C54.8532909,3.66770106 58.6180602,7.45642617 58.6180602,12.0990432 C58.6180602,16.7483838 54.8532909,20.5337471 50.2325882,20.5337471 Z M72.4601073,7.45306439 C67.8594656,7.45306439 64.1181007,11.2148953 64.1181007,15.8407034 C64.1181007,20.4665115 67.8594656,24.2283424 72.4601073,24.2283424 C77.060749,24.2283424 80.8021139,20.4665115 80.8021139,15.8407034 C80.8021139,11.2148953 77.060749,7.45306439 72.4601073,7.45306439 Z M72.4601073,20.8665632 C69.6682935,20.8665632 67.4314989,18.5839152 67.4314989,15.8104474 C67.4314989,13.0033618 69.7017284,10.7543315 72.4601073,10.7543315 C75.2184863,10.7543315 77.4887157,13.0369796 77.4887157,15.8104474 C77.4887157,18.617533 75.2218298,20.8665632 72.4601073,20.8665632 Z M83.1626176,0.00336177916 L86.8103648,0.00336177916 L86.8103648,24.2317042 L83.1626176,24.2317042 L83.1626176,0.00336177916 Z M110.505676,7.45978795 L115.260118,18.2073959 L120.01456,7.45978795 L124,7.46314973 C123.627221,8.29916488 121.608797,12.8344246 119.532359,17.5002792 L119.052873,18.5777088 C118.999643,18.6973198 118.946456,18.8168362 118.893337,18.9361978 L118.575664,19.6500289 C116.466215,24.3901033 114.552675,28.6900166 114.547955,28.6995087 C113.488069,31.0930954 110.686224,32.1755883 108.31569,31.1099043 L107.051851,30.5417636 L107.499879,29.516421 L108.519643,27.2136023 L109.044571,27.4489268 C110.02087,27.8893199 111.174374,27.4422033 111.612371,26.457202 C111.615714,26.4471166 111.619058,26.4403931 111.622401,26.4303077 L113.083506,23.1122317 L113.133659,23.0046548 L113.267398,22.7088182 L106.520236,7.45978795 L110.505676,7.45978795 Z M93.537466,0.00672355831 L93.537466,8.96922679 C94.8882358,8.01784329 96.5332327,7.45642617 98.3052822,7.45642617 C102.905924,7.45642617 106.647289,11.218257 106.647289,15.8440652 C106.647289,20.4698733 102.905924,24.2317042 98.3052822,24.2317042 C96.5332327,24.2317042 94.8915793,23.670287 93.537466,22.7189035 L93.537466,24.2350659 L89.8796883,24.2350659 L89.8796883,0.00672355831 L93.537466,0.00672355831 Z M98.3052822,10.7543315 C96.098579,10.7543315 94.2061639,12.1965348 93.537466,14.2136023 C93.3702915,14.7145074 93.2766738,15.252392 93.2766738,15.8104474 C93.2766738,16.3685027 93.3702915,16.9030256 93.537466,17.4039307 C94.1994769,19.4075511 96.0751746,20.8665632 98.3052822,20.8665632 C101.063661,20.8665632 103.333891,18.617533 103.333891,15.8104474 C103.333891,13.0369796 101.063661,10.7543315 98.3052822,10.7543315 Z" id="Combined-Shape" fill="#000000" fill-rule="nonzero"></path>
    </g>
</svg>