<?xml version="1.0" encoding="UTF-8"?>
<svg width="124px" height="52px" viewBox="0 0 124 52" version="1.1" xmlns="http://www.w3.org/2000/svg" xmlns:xlink="http://www.w3.org/1999/xlink">
    <title>assets/dolbyvision</title>
    <defs>
        <path d="M120.013924,7.46060355 L115.259854,18.2075974 L110.506119,7.46060355 L106.519709,7.46060355 L113.266482,22.7089033 L113.131406,23.0037237 L113.082926,23.1099532 L111.622502,26.4276073 C111.618824,26.4360115 111.616483,26.4447519 111.612471,26.4531561 C111.174812,27.4394766 110.020983,27.885237 109.04302,27.4465362 L108.519434,27.21189 L107.499343,29.5146492 L107.046304,30.5359313 L107.046639,30.5362675 L107.052657,30.5386207 L108.31682,31.1057382 C110.688672,32.1697137 113.487485,31.087585 114.5487,28.6964133 C114.557727,28.6765793 123.188876,9.28264074 124,7.46060355 L120.013924,7.46060355 Z M103.332052,15.8113832 C103.332052,13.0366424 101.062844,10.7550619 98.3028152,10.7550619 C96.0931208,10.7550619 94.2013897,12.1995811 93.5337002,14.2152517 C93.3675301,14.7168162 93.2739132,15.2523338 93.2739132,15.8113832 C93.2739132,16.3674071 93.3675301,16.9019162 93.5337002,17.404153 C94.1967088,19.4073854 96.0717227,20.8680407 98.3028152,20.8680407 C101.062844,20.8680407 103.332052,18.6170515 103.332052,15.8113832 L103.332052,15.8113832 Z M106.644086,15.8423108 C106.644086,20.4669908 102.902751,24.2287244 98.3028152,24.2287244 C96.5304457,24.2287244 94.8864652,23.6683303 93.5337002,22.7166352 L93.5337002,24.2334307 L89.8772895,24.2334307 L89.8769552,0.00403403067 L93.5337002,0.00403403067 L93.5337002,8.96765018 C94.8864652,8.01595511 96.5304457,7.45556101 98.3028152,7.45556101 C102.902751,7.45556101 106.644086,11.2172946 106.644086,15.8423108 L106.644086,15.8423108 Z M83.1612762,24.2334307 L86.8106656,24.2334307 L86.8106656,0.00437019989 L83.1612762,0.00437019989 L83.1612762,24.2334307 Z M77.4884233,15.8103747 C77.4884233,13.0352978 75.2192152,10.7537173 72.4595212,10.7537173 C69.6994928,10.7537173 67.4302848,13.0047064 67.4302848,15.8103747 C67.4302848,18.5854516 69.668733,20.8670321 72.4595212,20.8670321 C75.2192152,20.8670321 77.4884233,18.6163792 77.4884233,15.8103747 L77.4884233,15.8103747 Z M80.8004573,15.8413023 C80.8004573,20.4659823 77.0591227,24.2277159 72.4595212,24.2277159 C67.8595854,24.2277159 64.1182507,20.4659823 64.1182507,15.8413023 C64.1182507,11.2162861 67.8595854,7.45455251 72.4595212,7.45455251 C77.0591227,7.45455251 80.8004573,11.2162861 80.8004573,15.8413023 L80.8004573,15.8413023 Z M58.6169174,12.102092 C58.6169174,7.45623335 54.8505068,3.66962323 50.2298415,3.66962323 L47.7553448,3.66962323 L45.1852251,3.66962323 L45.1852251,20.534897 L47.7553448,20.534897 L50.2298415,20.534897 C54.8505068,20.534897 58.6169174,16.7479507 58.6169174,12.102092 L58.6169174,12.102092 Z M62.2666411,12.102092 C62.2666411,18.7753872 56.8669491,24.2045202 50.2301758,24.2045202 L41.5358357,24.2045202 L41.5358357,0 L50.2301758,0 C56.8669491,0 62.2666411,5.42879677 62.2666411,12.102092 L62.2666411,12.102092 Z M34.2464186,0.000336169222 L30.6949926,0.000336169222 C24.0639033,0.000336169222 18.6585273,5.43518399 18.6585273,12.102092 C18.6585273,18.7693362 24.0639033,24.204184 30.6949926,24.204184 L34.2464186,24.204184 L34.2464186,0.000336169222 Z M0,24.204184 L3.55142596,24.204184 C10.1825153,24.204184 15.5878913,18.7693362 15.5878913,12.102092 C15.5878913,5.43518399 10.1825153,0.000336169222 3.55142596,0.000336169222 L0,0.000336169222 L0,24.204184 Z M89.4282625,52 L92.3982603,52 L92.3982603,39.0366424 L92.4457375,39.0366424 L100.365397,52 L104.136823,52 L104.136823,35.2207856 L101.166825,35.2207856 L101.166825,47.7814124 L101.119682,47.7814124 L93.3648554,35.2207856 L89.4282625,35.2207856 L89.4282625,52 Z M71.860707,41.3535207 C72.1118011,40.6741227 72.4678798,40.0814564 72.9282746,39.5748494 C73.3886694,39.0689147 73.938669,38.6712265 74.5786078,38.3817848 C75.2185465,38.0926793 75.9343819,37.9477903 76.7254451,37.9477903 C77.5165083,37.9477903 78.2356871,38.0926793 78.8826472,38.3817848 C79.5299415,38.6712265 80.0836189,39.0689147 80.5440137,39.5748494 C81.0040742,40.0814564 81.3601529,40.6741227 81.61225,41.3535207 C81.8636784,42.0335911 81.9893926,42.7711463 81.9893926,43.5661865 C81.9893926,44.3904735 81.8636784,45.1465181 81.61225,45.8329756 C81.3601529,46.5197693 81.0003964,47.1164697 80.5333146,47.6227406 C80.0658986,48.1290114 79.5085434,48.5226656 78.861249,48.8047115 C78.2139546,49.0867575 77.5021315,49.2276124 76.7254451,49.2276124 C75.9487587,49.2276124 75.240279,49.0867575 74.6003403,48.8047115 C73.9604015,48.5226656 73.4063898,48.1290114 72.9389737,47.6227406 C72.471892,47.1164697 72.1118011,46.5197693 71.860707,45.8329756 C71.6089443,45.1465181 71.4828958,44.3904735 71.4828958,43.5661865 C71.4828958,42.7711463 71.6089443,42.0335911 71.860707,41.3535207 L71.860707,41.3535207 Z M68.8405573,46.982002 C69.2668488,48.0123607 69.8573043,48.8991751 70.6125925,49.6431176 C71.3675463,50.3873962 72.2649317,50.9666158 73.3044142,51.3797678 C74.343228,51.7932559 75.4763275,52 76.7027096,52 C77.9434685,52 79.0876014,51.7932559 80.1347739,51.3797678 C81.1809433,50.9666158 82.0860187,50.3873962 82.8486625,49.6431176 C83.6113063,48.8991751 84.2054396,48.0123607 84.6320654,46.982002 C85.0580226,45.9526519 85.2710011,44.8133744 85.2710011,43.565178 C85.2710011,42.287735 85.0580226,41.1336661 84.6320654,40.1036436 C84.2054396,39.0739572 83.6113063,38.1979002 82.8486625,37.4761449 C82.0860187,36.7543896 81.1809433,36.1980295 80.1347739,35.8070647 C79.0876014,35.4164361 77.9434685,35.2207856 76.7027096,35.2207856 C75.4763275,35.2207856 74.343228,35.4164361 73.3044142,35.8070647 C72.2649317,36.1980295 71.3675463,36.7543896 70.6125925,37.4761449 C69.8573043,38.1979002 69.2668488,39.0739572 68.8405573,40.1036436 C68.4146001,41.1336661 68.2012872,42.287735 68.2012872,43.565178 C68.2012872,44.8133744 68.4146001,45.9526519 68.8405573,46.982002 L68.8405573,46.982002 Z M61.2642711,52 L64.2342689,52 L64.2342689,35.2207856 L61.2642711,35.2207856 L61.2642711,52 Z M56.751934,36.9325593 C56.1404146,36.3634248 55.4215702,35.9361537 54.5937289,35.6510822 C53.7665562,35.366683 52.950417,35.2241473 52.1453112,35.2241473 C51.4298102,35.2241473 50.7253426,35.3176023 50.0322428,35.5051848 C49.3388087,35.692431 48.7202681,35.9771664 48.1762868,36.3593908 C47.6316367,36.7416152 47.1919714,37.2250265 46.8566221,37.8092886 C46.5212728,38.3942231 46.353431,39.091438 46.353431,39.9005973 C46.353431,40.6502547 46.4727926,41.2758656 46.7111815,41.7777663 C46.9495703,42.2803393 47.259175,42.7035763 47.6393267,43.0481498 C48.0194784,43.3933956 48.4481103,43.670399 48.9252224,43.8801686 C49.4023345,44.0902744 49.8791123,44.2701249 50.3562244,44.4197202 C50.8483821,44.5851155 51.3178042,44.7421065 51.7651595,44.892038 C52.2121804,45.0419694 52.6000221,45.2177859 52.9280158,45.420496 C53.2556751,45.6228699 53.5167996,45.8625585 53.7107204,46.1398981 C53.9039725,46.4175739 54.0012673,46.7658452 54.0012673,47.1853844 C54.0012673,47.6203874 53.9153403,47.9834501 53.744155,48.2755812 C53.5726354,48.5680484 53.3489577,48.8117711 53.0734564,49.0064131 C52.7972864,49.2013912 52.4880161,49.3402291 52.1453112,49.4222544 C51.8022719,49.504952 51.4665883,49.5459647 51.138929,49.5459647 C50.5130328,49.5459647 49.8757688,49.3889736 49.2271371,49.0739831 C48.5785053,48.7593287 48.0602686,48.3320576 47.6727613,47.792506 L45.6603312,49.6811047 C46.2865617,50.4304259 47.0916675,50.9961987 48.0753142,51.3784231 C49.0592952,51.7606475 50.0656775,51.9519278 51.0944609,51.9519278 C51.8691412,51.9519278 52.6073777,51.8467068 53.3081675,51.6369372 C54.0086229,51.4271676 54.6198079,51.1125133 55.1417224,50.6929741 C55.6633025,50.2730987 56.080901,49.7449769 56.3941835,49.1076 C56.7071316,48.4705593 56.8636056,47.724936 56.8636056,46.8703938 C56.8636056,46.0911536 56.718165,45.4393215 56.4276181,44.9145613 C56.1367368,44.3901373 55.7639408,43.9554705 55.3095642,43.6102247 C54.8545189,43.2656513 54.35534,42.9886478 53.8113586,42.7785421 C53.2670429,42.5687725 52.7414506,42.3815262 52.234916,42.2164671 C51.7875607,42.0813271 51.3773178,41.9465232 51.0048561,41.8120555 C50.63206,41.6765793 50.3150998,41.5192522 50.0543097,41.3394016 C49.7935196,41.1595511 49.5885654,40.9427219 49.4394469,40.6875695 C49.2903285,40.4327532 49.2161036,40.1254946 49.2161036,39.7657935 C49.2161036,39.3758372 49.3013619,39.0426935 49.4732159,38.7650177 C49.6444012,38.4880143 49.864401,38.2631171 50.1328811,38.0906623 C50.4010268,37.9185436 50.6992636,37.7911355 51.0272573,37.7084378 C51.3549166,37.6260764 51.6829103,37.5847276 52.010904,37.5847276 C52.5625753,37.5847276 53.1102345,37.7161697 53.6545502,37.9780456 C54.1985316,38.2409299 54.6198079,38.5666779 54.9180447,38.9559618 L56.751934,36.9325593 Z M38.9158984,52 L41.8858963,52 L41.8858963,35.2207856 L38.9158984,35.2207856 L38.9158984,52 Z M19.8631769,35.2207856 L23.186913,35.2207856 L27.7831711,48.1370795 L27.8774567,48.1370795 L32.5208575,35.2207856 L35.7265695,35.2207856 L29.0322887,52 L26.463172,52 L19.8631769,35.2207856 Z" id="path-1"></path>
    </defs>
    <g id="assets/dolbyvision" stroke="none" stroke-width="1" fill="none" fill-rule="evenodd">
        <mask id="mask-2" fill="white">
            <use xlink:href="#path-1"></use>
        </mask>
        <use id="Fill-1" fill="#FFFFFF" fill-rule="nonzero" xlink:href="#path-1"></use>
    </g>
</svg>