<svg id="Layer_1" data-name="Layer 1" xmlns="http://www.w3.org/2000/svg" viewBox="0 0 100 100"><g id="GeniusPlaylist"><rect width="100" height="100" style="fill:#fff"/><rect id="Fill" width="100" height="100" style="fill:#f5f5f5"/><path id="genius" d="M50.31,73.16c3.48,0,6.15-3.69,7.66-10a27.14,27.14,0,0,0,2.69.68,3.33,3.33,0,0,0,6.53,0,5.25,5.25,0,0,0,3.22-2.36c1.72-3-.12-7.13-4.8-11.56,4.7-4.44,6.54-8.6,4.8-11.62S64.14,34.84,58,36.68c-.2-.77-.39-1.49-.61-2.19a3.32,3.32,0,0,0,1.29-2.62,3.32,3.32,0,0,0-4.34-3.18,5.39,5.39,0,0,0-4-1.94c-3.45,0-6.15,3.68-7.63,9.93-6.2-1.84-10.71-1.35-12.47,1.66S30.31,45.52,35,50c-.66.62-1.29,1.27-1.84,1.89a2.72,2.72,0,0,0-.89-.14A3.38,3.38,0,0,0,29,55.05a3.46,3.46,0,0,0,.89,2.27,5.35,5.35,0,0,0,.37,4.2c1.74,3,6.25,3.5,12.45,1.64C44.16,69.47,46.84,73.16,50.31,73.16Zm0-33.4A50.44,50.44,0,0,0,44.8,37.4c1.14-5.33,3.05-8.4,5.51-8.4a3.26,3.26,0,0,1,2.27,1,3.31,3.31,0,0,0,2.69,5.23c.2.67.39,1.41.55,2.17A57,57,0,0,0,50.31,39.76Zm13.6,8.67a59.2,59.2,0,0,0-4.77-3.57,54.87,54.87,0,0,0-.72-6c5.17-1.68,8.83-1.54,10,.59S68,44.8,63.91,48.43Zm-27.19,0c-4.08-3.63-5.78-6.85-4.55-9s4.86-2.27,10-.59a52.77,52.77,0,0,0-.71,6A55.11,55.11,0,0,0,36.72,48.43Zm19.94-5.15c-.62-.39-1.25-.76-1.91-1.16s-1.21-.68-1.82-1c1.15-.55,2.25-1,3.3-1.43C56.41,40.8,56.54,42,56.66,43.28ZM44,43.26c.1-1.27.24-2.46.41-3.58,1.06.41,2.15.88,3.31,1.43-.61.33-1.22.66-1.82,1Zm6.33,14.18c-1.09-.57-2.2-1.17-3.36-1.84s-2.16-1.27-3.16-1.91c-.06-1.21-.08-2.48-.08-3.79s0-2.52.08-3.71c1-.67,2.13-1.33,3.28-2s2.19-1.25,3.24-1.8c1.06.55,2.13,1.15,3.24,1.8s2.25,1.32,3.31,2c0,1.19.07,2.42.07,3.71s0,2.58-.09,3.79c-1,.62-2,1.27-3.17,1.91s-2.28,1.27-3.38,1.84Zm-8.94-5.37c-1-.71-2-1.43-2.87-2.13.88-.71,1.83-1.41,2.87-2.13V49.9c0,.72,0,1.46,0,2.17Zm17.91,0V47.81c1,.72,2,1.42,2.85,2.13-.88.7-1.84,1.4-2.87,2.13ZM32.17,60.41a3,3,0,0,1-.35-2,3.69,3.69,0,0,0,.47,0,3.38,3.38,0,0,0,3.33-3.34,3.24,3.24,0,0,0-.62-2c.51-.55,1.09-1.11,1.72-1.68A55.37,55.37,0,0,0,41.5,55a52.51,52.51,0,0,0,.71,6C37,62.65,33.4,62.52,32.17,60.41Zm34.74,1.3a3.31,3.31,0,0,0-5.95,0c-.78-.2-1.64-.43-2.52-.73.31-1.81.55-3.79.7-5.93a55.74,55.74,0,0,0,4.79-3.58c4.06,3.65,5.76,6.86,4.53,9A3.11,3.11,0,0,1,66.91,61.71ZM56.23,60.17c-1-.41-2.15-.9-3.28-1.42l1.89-1.08c.63-.35,1.23-.7,1.82-1.07C56.54,57.87,56.41,59.06,56.23,60.17Zm-11.84,0c-.17-1.09-.31-2.28-.41-3.53.59.35,1.18.7,1.8,1l1.9,1.08c-1.14.5-2.23,1-3.29,1.38Zm5.92,10.76c-2.46,0-4.39-3.1-5.51-8.45a52.53,52.53,0,0,0,5.51-2.37,54.73,54.73,0,0,0,5.51,2.37c-1.11,5.33-3,8.43-5.51,8.43Z" style="fill:#3c3c43;fill-opacity:0.18000000715255737"/></g></svg>