<svg id="Layer_1" data-name="Layer 1" xmlns="http://www.w3.org/2000/svg" xmlns:xlink="http://www.w3.org/1999/xlink" viewBox="0 0 243 243"><defs><linearGradient id="linear-gradient" x1="-752.67" y1="3.13" x2="-751.57" y2="4.98" gradientTransform="translate(182952 -756) scale(243)" gradientUnits="userSpaceOnUse"><stop offset="0" stop-color="#f35b78"/><stop offset="0.63" stop-color="#8875e1"/><stop offset="1" stop-color="#43a7fc"/></linearGradient><linearGradient id="linear-gradient-2" x1="-751.56" y1="8.39" x2="-750.56" y2="8.69" gradientTransform="translate(127803 -663) scale(170 94)" gradientUnits="userSpaceOnUse"><stop offset="0" stop-color="#ffedff"/><stop offset="1" stop-color="#fff9ff"/></linearGradient><linearGradient id="linear-gradient-3" x1="-751.56" y1="20.39" x2="-750.56" y2="20.44" gradientTransform="translate(127803 -703) scale(170 38)" gradientUnits="userSpaceOnUse"><stop offset="0" stop-color="#ffabd1"/><stop offset="1" stop-color="#ffb4f6"/></linearGradient></defs><g id="Asset_Library-Playlist_general_Library_Playlist" data-name="Asset Library-Playlist general Library Playlist"><g id="playlist"><g id="Rectangle"><rect id="path-2" width="243" height="243" style="fill:#828282"/><rect id="path-2-2" width="243" height="243" style="fill:url(#linear-gradient)"/></g><g id="Group-4"><rect id="Rectangle-2" x="39" y="93" width="170" height="94" rx="5" style="fill:url(#linear-gradient-2)"/><path id="Path" d="M209,91a14.57,14.57,0,0,0-4.72-.79H43.72A14.57,14.57,0,0,0,39,91V62.3A9.37,9.37,0,0,1,48.44,53H86.22a9.52,9.52,0,0,1,7.56,3.72L105.11,71.6h94.45A9.38,9.38,0,0,1,209,80.9Z" style="fill-rule:evenodd;fill:url(#linear-gradient-3)"/></g></g></g></svg>