<?xml version="1.0" encoding="UTF-8"?>
<svg width="240px" height="72px" viewBox="0 0 240 72" version="1.1" xmlns="http://www.w3.org/2000/svg" xmlns:xlink="http://www.w3.org/1999/xlink">
    <title>Assets/Windows/product_header_lossless</title>
    <g id="Assets/Windows/product_header_lossless" stroke="none" stroke-width="1" fill="none" fill-rule="evenodd">
        <path d="M30.8900341,4.00008764 C33.228705,4.00008764 35.3198237,4.81949518 37.2156899,6.24097009 C37.8694369,6.7299855 38.6373717,7.4328356 39.1882625,8.00773544 C48.9779058,18.2402515 53.1366083,45.2009506 59.7411962,56.1249239 C60.1740389,56.8396676 60.4954912,57.2833576 60.6861039,57.5380365 L60.7769817,57.6587005 L60.8124696,57.7058984 C62.3195743,59.7101605 63.9626584,60.9002733 65.8332464,60.9002733 C66.4669452,60.9002733 67.1285371,60.7530428 67.8171506,60.4708511 C68.4743843,61.1842177 69.1586395,61.8292273 69.8699162,62.3918579 C68.1466391,63.4925808 66.0624937,64 64.1099694,64 C61.7712985,64 59.6801798,63.1805925 57.7843135,61.7599939 C57.253471,61.3621212 56.4428247,60.6522601 55.8117409,59.9923522 C46.0220977,49.7598362 41.8633952,22.7991371 35.2579356,11.8751638 C33.2679298,8.58614077 30.701755,6.08848141 27.1828528,7.52923649 C26.5247475,6.81499355 25.841364,6.17173672 25.1292156,5.60735334 C26.8524927,4.50750685 28.9366381,4.00008764 30.8900341,4.00008764 Z M43.8552315,4 C52.7266441,4 58.2306788,15.9809749 62.3513771,27.9329485 L62.6271038,28.7385193 C62.6727164,28.8727284 62.7181601,29.0068997 62.7634376,29.1410162 L63.081125,30.0890107 L63.3934851,31.0338347 C64.3227956,33.8622091 65.1831779,36.6296672 66.0015645,39.1731784 C66.3031598,40.1100197 66.6038834,41.0354682 66.9037353,41.9468948 C68.7568901,47.5802121 70.6065583,52.6482697 72.7072653,56.1239599 C73.13438,56.8303154 73.5719546,57.4700668 74.0217326,58.0353265 C75.4617193,59.8459105 77.0289687,60.9001856 78.7984439,60.9001856 C79.9682152,60.9001856 81.2260244,60.4418432 82.5910481,59.4445322 C89.2762904,54.5960702 92.4285892,38.514686 93.4728569,30.026338 L93.5182111,29.6513998 L93.5251844,29.5926829 C93.5705108,29.2149667 93.8895394,28.9371568 94.2591243,28.9371568 C94.2887609,28.9371568 94.3183974,28.9389096 94.3480339,28.9424151 C94.7195801,28.9865988 94.993712,29.3017762 94.9998933,29.6678875 L94.9948076,29.7688336 L94.991321,29.7960011 C93.5243127,39.2301425 91.0871439,55.4482773 84.058928,61.4777146 C82.1177353,63.185763 79.560277,63.9999124 77.0751668,63.9999124 C57.4122007,63.9999124 55.1075247,7.09972672 42.1319545,7.09972672 C41.5017424,7.09972672 40.8436371,7.24520442 40.1593819,7.52389062 C39.4986616,6.80877131 38.8100481,6.17164908 38.0952847,5.60814208 C39.8185618,4.50741922 41.9027072,4 43.8552315,4 Z M52.8682233,60.9000104 C53.4984354,60.9000104 54.1565407,60.7545327 54.8407959,60.4758465 C55.5015162,61.1918421 56.1901297,61.8289644 56.9048931,62.3924714 C55.181616,63.4923179 53.0974706,63.9997371 51.1440746,63.9997371 C39.3879604,63.9997371 33.5452057,42.9650634 28.9977416,28.8265587 C28.697018,27.8897174 28.3962944,26.9651452 28.0964425,26.0528423 C26.2432877,20.4204013 24.3936195,15.3514674 22.2920409,11.8757772 C21.8657978,11.1694216 21.4282232,10.5305467 20.9784452,9.96441055 C18.4105271,6.73498081 15.6412548,6.1933831 12.4082581,8.55520484 C5.72301572,13.4036669 2.57071692,29.4859018 1.52644926,37.9742749 L1.48109506,38.3492137 L1.47499343,38.4070542 C1.42966697,38.7856468 1.11063844,39.0634566 0.741053474,39.0634566 C0.711416943,39.0634566 0.681780413,39.0617039 0.652143883,39.0581984 C0.279798654,39.0132113 0.00560021811,38.6987034 8.47323334e-05,38.3320342 L0.00537019602,38.2309035 L0.00885684663,38.2046123 C1.47586509,28.7695946 3.91303386,12.5514598 10.9403782,6.52202249 C12.3141185,5.31438228 14.1794766,4.41960677 16.1965039,4.14267331 C37.7318014,1.18053695 39.4428752,60.9000104 52.8682233,60.9000104 Z M62.1611932,51.6762858 C62.5220615,52.4212018 62.8907748,53.1459612 63.2690764,53.8488113 C62.7704854,54.9907236 62.2300545,56.0704135 61.6460406,57.0721064 C61.2171825,56.4972066 60.7961695,55.8460624 60.3830014,55.1274376 C61.0219301,54.0722861 61.6146607,52.9119699 62.1611932,51.6762858 Z M81.2937526,28.9368063 C81.3233891,28.9368063 81.3530256,28.938559 81.3826621,28.9420645 C81.7550074,28.9870516 82.0292058,29.3015595 82.0347213,29.6682288 L82.0294358,29.7693594 L82.0259492,29.7956506 C80.8370013,37.4446228 79.0091247,49.5490688 74.6168166,57.0718435 C74.1853436,56.4960673 73.7634589,55.8440467 73.3494192,55.1236692 C77.5069594,48.2650799 79.6576516,36.8725344 80.494791,30.1355569 L80.553711,29.6510492 L80.5598126,29.5932087 C80.6051391,29.2146161 80.9241676,28.9368063 81.2937526,28.9368063 Z M128.533236,29.0358499 C133.885854,29.0358499 137.193981,32.6212735 137.193981,38.5286074 C137.193981,44.4359414 133.901398,48.0213649 128.533236,48.0213649 C123.148616,48.0213649 119.856034,44.4359414 119.856034,38.5286074 C119.856034,32.6376827 123.165075,29.0358499 128.533236,29.0358499 Z M188.346319,29.035303 C193.461205,29.035303 196.550801,32.5195361 196.550801,38.2427216 L196.550801,39.4880022 L183.568828,39.4880022 L183.568828,39.656653 C183.68678,42.9722353 185.561202,45.059858 188.46427,45.059858 C190.65963,45.059858 192.160996,44.2512461 192.836702,42.7698544 L196.331357,42.7698544 C195.537699,46.0015672 192.566969,48.0217296 188.362777,48.0217296 C183.096108,48.0217296 179.871188,44.4025759 179.871188,38.5627022 C179.871188,32.7556471 183.16377,29.035303 188.346319,29.035303 Z M146.53226,29.0357588 C150.667875,29.0357588 153.369786,30.9538191 153.72364,34.1180716 L150.246359,34.1180716 C149.908048,32.7551913 148.592296,31.8636214 146.53226,31.8636214 C144.506055,31.8636214 142.969944,32.8563817 142.969944,34.3368617 C142.969944,35.4654542 143.898926,36.1719641 145.891299,36.6432745 L148.947064,37.3497844 C152.440804,38.1583963 154.078409,39.6561972 154.078409,42.3154091 C154.078409,45.7157726 150.854403,48.0212738 146.464598,48.0212738 C142.09308,48.0212738 139.239387,46.0521625 138.918449,42.8715007 L142.548427,42.8715007 C143.004689,44.3018413 144.354273,45.1943227 146.549633,45.1943227 C148.810826,45.1943227 150.415514,44.1505114 150.415514,42.6527105 C150.415514,41.5077088 149.554194,40.7665572 147.713603,40.3298885 L144.506055,39.5723276 C141.012316,38.7646273 139.391169,37.2157754 139.391169,34.5055124 C139.391169,31.3248507 142.379272,29.0357588 146.53226,29.0357588 Z M163.096848,29.0357588 C167.232463,29.0357588 169.934374,30.9538191 170.288228,34.1180716 L166.810947,34.1180716 C166.472636,32.7551913 165.156883,31.8636214 163.096848,31.8636214 C161.070643,31.8636214 159.534532,32.8563817 159.534532,34.3368617 C159.534532,35.4654542 160.463513,36.1719641 162.455887,36.6432745 L165.511652,37.3497844 C169.005392,38.1583963 170.642997,39.6561972 170.642997,42.3154091 C170.642997,45.7157726 167.418991,48.0212738 163.029186,48.0212738 C158.657668,48.0212738 155.803974,46.0521625 155.483037,42.8715007 L159.113015,42.8715007 C159.569277,44.3018413 160.918861,45.1943227 163.11422,45.1943227 C165.375414,45.1943227 166.979187,44.1505114 166.979187,42.6527105 C166.979187,41.5077088 166.118782,40.7665572 164.279105,40.3298885 L161.070643,39.5723276 C157.576903,38.7646273 155.955757,37.2157754 155.955757,34.5055124 C155.955757,31.3248507 158.94386,29.0357588 163.096848,29.0357588 Z M205.889263,29.0357588 C210.024878,29.0357588 212.726789,30.9538191 213.080644,34.1180716 L209.603362,34.1180716 C209.265052,32.7551913 207.949299,31.8636214 205.889263,31.8636214 C203.863059,31.8636214 202.326947,32.8563817 202.326947,34.3368617 C202.326947,35.4654542 203.255929,36.1719641 205.248302,36.6432745 L208.304068,37.3497844 C211.797807,38.1583963 213.435412,39.6561972 213.435412,42.3154091 C213.435412,45.7157726 210.211406,48.0212738 205.821601,48.0212738 C201.450083,48.0212738 198.59639,46.0521625 198.275452,42.8715007 L201.905431,42.8715007 C202.361692,44.3018413 203.711276,45.1943227 205.906636,45.1943227 C208.167829,45.1943227 209.771603,44.1505114 209.771603,42.6527105 C209.771603,41.5077088 208.911197,40.7665572 207.071521,40.3298885 L203.863059,39.5723276 C200.369319,38.7646273 198.748172,37.2157754 198.748172,34.5055124 C198.748172,31.3248507 201.736276,29.0357588 205.889263,29.0357588 Z M222.453851,29.0357588 C226.589466,29.0357588 229.291377,30.9538191 229.645231,34.1180716 L226.16795,34.1180716 C225.82964,32.7551913 224.513887,31.8636214 222.453851,31.8636214 C220.427647,31.8636214 218.891535,32.8563817 218.891535,34.3368617 C218.891535,35.4654542 219.820517,36.1719641 221.81289,36.6432745 L224.868655,37.3497844 C228.362395,38.1583963 230,39.6561972 230,42.3154091 C230,45.7157726 226.775994,48.0212738 222.386189,48.0212738 C218.014671,48.0212738 215.160978,46.0521625 214.84004,42.8715007 L218.470018,42.8715007 C218.92628,44.3018413 220.275864,45.1943227 222.471224,45.1943227 C224.732417,45.1943227 226.337105,44.1505114 226.337105,42.6527105 C226.337105,41.5077088 225.475785,40.7665572 223.635194,40.3298885 L220.427647,39.5723276 C216.933907,38.7646273 215.31276,37.2157754 215.31276,34.5055124 C215.31276,31.3248507 218.300863,29.0357588 222.453851,29.0357588 Z M107.580672,23.3795777 L107.580672,44.385255 L118.992703,44.385255 L118.992703,47.6680188 L103.798912,47.6680188 L103.798912,23.3795777 L107.580672,23.3795777 Z M177.078756,22.2193517 L177.078756,47.6682923 L173.448778,47.6682923 L173.448778,22.2193517 L177.078756,22.2193517 Z M128.533236,32.098912 C125.376893,32.098912 123.604878,34.4554642 123.604878,38.5286074 C123.604878,42.6017507 125.376893,44.940982 128.533236,44.940982 C131.674036,44.940982 133.463424,42.5844298 133.463424,38.5286074 C133.463424,34.4554642 131.674036,32.098912 128.533236,32.098912 Z M68.3286423,28.9368063 C68.3582788,28.9368063 68.3879153,28.938559 68.4175519,28.9420645 C68.7898971,28.9870516 69.0640955,29.3015595 69.069611,29.6682288 L69.0643256,29.7693594 L69.0608389,29.7956506 C68.611061,32.6868008 68.0697585,36.2159497 67.3340752,39.892329 C67.0307366,38.9572404 66.7282697,38.0195226 66.427546,37.0809285 C66.920773,34.518957 67.2817961,32.1264933 67.5291261,30.1392748 L67.5886007,29.6510492 L67.5947023,29.5932087 C67.6400288,29.2146161 67.9590573,28.9368063 68.3286423,28.9368063 Z M20.3830997,10.9289452 C20.8145727,11.5038451 21.2364574,12.1558656 21.6504971,12.8762432 C17.4929569,19.7348325 15.3422647,31.1282131 14.5051253,37.8644151 L14.4462053,38.3488631 L14.4401037,38.40758 C14.3947772,38.7852962 14.0757487,39.0631061 13.7061637,39.0631061 C13.6765272,39.0631061 13.6468907,39.0613533 13.6172542,39.0578478 C13.2449089,39.0128608 12.9707105,38.6983529 12.965195,38.3316836 L12.9704805,38.2305529 L12.9739671,38.2042618 C14.162915,30.5561659 15.9907916,18.4508436 20.3830997,10.9289452 Z M27.6658411,28.1075834 C27.9691797,29.042672 28.2716466,29.9803897 28.5723703,30.9198602 C28.0791433,33.4810228 27.7181202,35.8734242 27.4707902,37.8606379 L27.4113156,38.3488631 L27.405214,38.40758 C27.3598875,38.7852962 27.040859,39.0631061 26.671274,39.0631061 C26.6416375,39.0631061 26.612001,39.0613533 26.5823644,39.0578478 C26.2100192,39.0128608 25.9358208,38.6983529 25.9303053,38.3316836 L25.9355907,38.2305529 L25.9390774,38.2042618 C26.3888553,35.3131115 26.9301578,31.7839627 27.6658411,28.1075834 Z M188.328946,31.9807653 C185.645322,31.9807653 183.771815,33.934379 183.568828,36.8789297 L192.853161,36.8789297 C192.769955,33.9170581 191.014398,31.9807653 188.328946,31.9807653 Z M33.3541372,10.9279812 C33.7838669,11.5020047 34.2040083,12.1540252 34.6163048,12.87265 C33.977376,13.9269252 33.3855171,15.0881177 32.8389846,16.3238018 C32.4781163,15.5788859 32.109403,14.8541265 31.7311014,14.1512764 C32.2288208,13.009364 32.7701233,11.9296741 33.3541372,10.9279812 Z" id="Shape" fill="#FFFFFF"></path>
    </g>
</svg>