<?xml version="1.0" encoding="UTF-8"?>
<svg width="auto" height="auto" viewBox="0 0 22 22" version="1.1" xmlns="http://www.w3.org/2000/svg" xmlns:xlink="http://www.w3.org/1999/xlink">
    <title>rotten-tomatoes-fresh</title>
    <g id="rotten-tomatoes-fresh" stroke="none" stroke-width="1" fill="none" fill-rule="evenodd">
        <g id="Group-2" transform="translate(0.500000, 0.000000)">
            <path d="M21.1920334,11.9097593 C20.9797513,8.50843154 19.2488853,5.96364315 16.6445024,4.54094606 C16.6593,4.62383402 16.5854946,4.72744398 16.5014586,4.69074689 C14.7979956,3.9460332 11.9081646,6.35617427 9.88874478,5.09404979 C9.90390778,5.54701245 9.81539603,7.75659751 6.70086024,7.88476349 C6.6273288,7.88777593 6.58686368,7.81273859 6.63335747,7.75960996 C7.04988336,7.28482988 7.47042835,6.08277178 6.86573507,5.44194191 C5.57075973,6.60164315 4.81872955,7.03808299 2.335742,6.46215768 C0.746001521,8.12338589 -0.154827057,10.3970539 0.0220137586,13.2293942 C0.382820175,19.0112863 5.80194987,22.3163071 11.2590784,21.9759917 C16.7158416,21.6359502 21.5529312,17.6916515 21.1920334,11.9097593" id="Fill-1" fill="#FA320A"></path>
            <path d="M11.2467471,3.15284647 C12.3680786,2.88574274 15.5934139,3.12682988 16.6267818,4.49676349 C16.6888039,4.57892116 16.6014797,4.73438174 16.5014586,4.69074689 C14.7979956,3.9460332 11.9081646,6.35617427 9.88874478,5.09404979 C9.90390778,5.54701245 9.81539603,7.75659751 6.70086024,7.88476349 C6.6273288,7.88777593 6.58686368,7.81273859 6.63335747,7.75960996 C7.04988336,7.28482988 7.47033701,6.08277178 6.86573507,5.44194191 C5.45511899,6.70525311 4.69039208,7.11120332 1.62874411,6.28414938 C1.5285404,6.25712863 1.56270283,6.09619087 1.66930057,6.05556846 C2.24796099,5.83456432 3.55892142,4.86656432 4.79918206,4.43989212 C5.03530474,4.35873859 5.27069668,4.29575104 5.50042532,4.25914523 C4.13484154,4.13718672 3.51927839,3.94740249 2.65069403,4.07830705 C2.55551421,4.092639 2.49084308,3.98190871 2.54985092,3.90595851 C3.72014252,2.39946058 5.87602936,1.94448963 7.20617191,2.74479668 C6.38627358,1.72951037 5.74403816,0.91980083 5.74403816,0.91980083 L7.26581915,0.0559585062 C7.26581915,0.0559585062 7.89453574,1.45975934 8.35198348,2.48143568 C9.48400219,0.809892116 11.5901982,0.655618257 12.4800656,1.84160996 C12.5328621,1.91208299 12.4776907,2.01231535 12.3895443,2.01021577 C11.6652825,1.99259751 11.2664772,2.65095436 11.2362426,3.15165975 L11.2467471,3.15284647" id="Fill-4" fill="#00912D"></path>
        </g>
    </g>
</svg>