<?xml version="1.0" encoding="UTF-8"?>
<svg width="auto" height="auto" viewBox="0 0 17 22" version="1.1" xmlns="http://www.w3.org/2000/svg" xmlns:xlink="http://www.w3.org/1999/xlink">
    <title>rotten-tomatoes-red-popcorn</title>
    <defs>
        <polygon id="path-1" points="0.00494695802 0.0343494424 16.5237873 0.0343494424 16.5237873 21.9950929 0.00494695802 21.9950929"></polygon>
    </defs>
    <g id="rotten-tomatoes-red-popcorn" stroke="none" stroke-width="1" fill="none" fill-rule="evenodd">
        <g id="RT_Audience_RedPopcorn_RGB">
            <g id="Group-4">
                <mask id="mask-2" fill="white">
                    <use xlink:href="#path-1"></use>
                </mask>
                <g id="Clip-2"></g>
                <path d="M0.701725995,5.25219331 C0.765624203,6.59869145 4.12782422,7.6659777 8.26183214,7.64258736 C11.872287,7.62214126 14.8840775,6.77632714 15.6218338,5.66512268 C15.4537197,5.47979926 15.2215425,5.35270632 14.9600133,5.31827509 C14.9628166,5.28556134 14.9646305,5.25260223 14.9644656,5.21915242 C14.9614149,4.68665428 14.5676371,4.24812639 14.0545551,4.16634201 C14.0680768,4.09747955 14.0751674,4.02624535 14.0747552,3.95337546 C14.0713747,3.36035688 13.5839345,2.88240892 12.9860946,2.88576208 C12.9725729,2.88584387 12.959381,2.88747955 12.9459418,2.88805204 C12.9841983,2.77715242 13.0056351,2.65864684 13.0049755,2.53490706 C13.0015126,1.94188848 12.5141548,1.46394052 11.9163149,1.46729368 C11.7791193,1.46811152 11.648602,1.49518216 11.5280612,1.54204461 C11.3570613,1.22275836 11.0287482,1.00022305 10.6459361,0.974542751 C10.5792346,0.44204461 10.1206516,0.0312416357 9.56634497,0.0343319259 C9.21750198,0.0363122677 8.9089767,0.202498141 8.71250002,0.457747212 C8.51322006,0.242654275 8.22761568,0.107710037 7.90993853,0.109509294 C7.31209865,0.112862454 6.83026494,0.596371747 6.83364536,1.18930855 C6.83430495,1.30257993 6.85285605,1.41143494 6.88616556,1.51374721 C6.64219808,1.55864684 6.427665,1.68443123 6.27084644,1.8621487 C6.14634799,1.40219331 5.72297083,1.06417844 5.22027745,1.06695911 C4.75064624,1.06965799 4.3537353,1.36915242 4.20631595,1.78469888 C3.80734379,1.94475093 3.52652147,2.33298141 3.52915985,2.78582156 C3.529737,2.88641636 3.54523746,2.98324907 3.57186859,3.07550186 C3.43731133,3.01710781 3.28898504,2.98439405 3.13266117,2.98529368 C2.66129852,2.98799257 2.26315084,3.28961338 2.11696824,3.70761338 C1.97680442,3.64300372 1.82097525,3.60628253 1.6561591,3.60726394 C1.05831922,3.6106171 0.576403059,4.09404461 0.579847383,4.6870632 C0.58093777,4.88260967 0.635601656,5.06515242 0.728604467,5.22250558 C0.719122797,5.23199257 0.710795418,5.24237918 0.701725995,5.25219331" id="Fill-1" fill="#F9D320" mask="url(#mask-2)"></path>
                <path d="M14.1317276,18.7433457 C13.813968,19.2220297 13.1965052,19.7177249 12.5502676,20.0482156 L13.6550058,8.93347212 C14.3578861,8.70946468 15.0437818,8.41266914 15.5490311,7.9870632 L14.1317276,18.7433457 Z M11.4508886,20.5118513 C10.381109,20.8630335 9.75911143,20.9718885 8.86865899,21.0585799 L9.00742116,9.63689963 C9.99112376,9.60892937 11.264141,9.47668401 12.348844,9.24703346 L11.4508886,20.5118513 Z M5.07294055,20.5118513 L4.17506767,9.24703346 C5.25968822,9.47668401 6.53270541,9.60892937 7.51640802,9.63689963 L7.65517019,21.0585799 C6.76471774,20.9718885 6.14280267,20.8630335 5.07294055,20.5118513 Z M2.392184,18.7433457 L0.974798078,7.9870632 C1.48004739,8.41266914 2.16594312,8.70946468 2.8688234,8.93347212 L3.97356158,20.0482156 C3.32732396,19.7177249 2.70986115,19.2220297 2.392184,18.7433457 Z M14.0524938,3.74302602 C14.0665102,3.81090706 14.0743429,3.88107807 14.0747552,3.95313011 C14.0751674,4.026 14.0680768,4.0972342 14.0544726,4.16609665 C14.5676371,4.24779926 14.9614149,4.68632714 14.9644656,5.21890706 C14.9646305,5.25227509 14.9628166,5.28531599 14.9600133,5.31794796 C15.2215425,5.35237918 15.4537197,5.47947212 15.6218338,5.66479554 C14.8841599,6.77608178 11.872287,7.62189591 8.26191459,7.64242379 C4.12790667,7.66589591 0.765706652,6.59869145 0.701725995,5.25211152 C0.710795418,5.24237918 0.719122797,5.23191078 0.728604467,5.22250558 C0.664788709,5.11455019 0.620760782,4.99424535 0.598004775,4.86657993 C0.202165684,5.23927138 -0.037349533,5.53974721 0.00478205942,5.97729368 C0.00882207514,6.03576952 1.7560052,18.4445056 1.7560052,18.4445056 C1.95759374,20.4097844 4.83466207,21.9805353 8.26191459,22 C11.6891671,21.9805353 14.5663179,20.4097844 14.767824,18.4445056 C14.767824,18.4445056 16.5150071,6.03576952 16.5190471,5.97729368 C16.6027332,5.10211896 15.5703855,4.30766543 14.0524938,3.74302602 L14.0524938,3.74302602 Z" id="Fill-3" fill="#DB382A" mask="url(#mask-2)"></path>
            </g>
            <path d="M4.17506767,9.24703346 L5.07294055,20.5118513 C6.14280267,20.8630335 6.76471774,20.9718885 7.65517019,21.0585799 L7.51640802,9.63689963 C6.53270541,9.60892937 5.25968822,9.47668401 4.17506767,9.24703346" id="Fill-5" fill="#FFFFFE"></path>
            <path d="M8.86865899,21.0585799 C9.75911143,20.9718885 10.3810265,20.8630335 11.4508886,20.5118513 L12.3487615,9.24703346 C11.264141,9.47668401 9.99112376,9.60892937 9.00742116,9.63689963 L8.86865899,21.0585799" id="Fill-6" fill="#FFFFFE"></path>
            <path d="M12.5502676,20.0482156 C13.1965052,19.7177249 13.813968,19.2220297 14.1316452,18.7433457 L15.5490311,7.9870632 C15.0437818,8.41266914 14.3578861,8.70946468 13.6550058,8.93347212 L12.5502676,20.0482156" id="Fill-7" fill="#FFFFFE"></path>
            <path d="M0.974798078,7.9870632 L2.39210155,18.7433457 C2.70986115,19.2220297 3.32732396,19.7177249 3.97356158,20.0482156 L2.8688234,8.93347212 C2.16594312,8.70946468 1.48004739,8.41266914 0.974798078,7.9870632" id="Fill-8" fill="#FFFFFE"></path>
        </g>
    </g>
</svg>