<?xml version="1.0" encoding="UTF-8"?>
<svg width="auto" height="auto" viewBox="0 0 23 22" version="1.1" xmlns="http://www.w3.org/2000/svg" xmlns:xlink="http://www.w3.org/1999/xlink">
    <title>_Assets/_Common/Rotten Tomatoes/rotten-tomatoes-certified-fresh</title>
    <g id="_Assets/_Common/Rotten-Tomatoes/rotten-tomatoes-certified-fresh" stroke="none" stroke-width="1" fill="none" fill-rule="evenodd">
        <path d="M12.6034286,5.17062857 C13.2043429,5.1172 14.5180571,5.14737143 15.1598286,5.77657143 C15.1981714,5.81491429 15.1648571,5.90165714 15.1101714,5.8872 C14.1698286,5.63388571 12.7033714,6.88097143 11.7529714,6.07451429 C11.7272,6.31085714 11.5141143,7.44857143 9.89114286,7.28011429 C9.8528,7.27634286 9.83771429,7.2336 9.866,7.20971429 C10.1174286,6.996 10.4260571,6.40451429 10.1614286,6.02674286 C9.33548571,6.57485714 8.90805714,6.59874286 7.38502857,5.93874286 C7.33537143,5.91737143 7.36491429,5.83628571 7.42337143,5.82308571 C7.73954286,5.75205714 8.49194286,5.47862857 9.1664,5.35102857 C9.29525714,5.32651429 9.4216,5.31205714 9.54354286,5.3108 C8.8452,5.14422857 8.54097143,4.99965714 8.08085714,5.00154286 C8.03057143,5.00217143 8.00542857,4.93931429 8.04188571,4.90474286 C8.7616,4.21268571 10.0665143,4.17685714 10.6950857,4.69228571 L10.1318857,3.51622857 L10.8164,3.41314286 C10.8164,3.41314286 10.9949143,4.04045714 11.1545714,4.60428571 C11.8673714,3.8236 12.9698857,3.9028 13.3413714,4.5848 C13.3633714,4.62502857 13.3269143,4.6728 13.2816571,4.66462857 C12.9076571,4.60114286 12.6518286,4.91228571 12.5977714,5.16937143 L12.6034286,5.17062857 Z" id="Clip-5" fill="#00912D"></path>
        <path d="M4.58851429,16.2749714 C4.28491429,16.3202286 3.98194286,16.3698857 3.6796,16.4201714 C2.276,14.7048 1.46577143,12.5280571 1.46577143,10.1904 C1.46577143,4.87205714 5.78782857,0.705885714 11.3048,0.705885714 C16.8217714,0.705885714 21.1438286,4.87205714 21.1438286,10.1904 C21.1438286,12.5242857 20.3336,14.6997714 18.9312571,16.4157714 C18.5981143,16.3604571 18.2656,16.3045143 17.9312,16.2567429 C19.0318286,14.9568571 19.6673143,13.2810857 19.546,11.3369143 C19.3555429,8.29211429 17.5760571,6.4636 15.0114857,5.66154286 C15.0617714,5.69925714 15.1152,5.73382857 15.1598286,5.77657143 C14.5180571,5.14737143 13.2043429,5.1172 12.6034286,5.17062857 L12.5977714,5.16937143 C12.6518286,4.91228571 12.9076571,4.60114286 13.2816571,4.66462857 C13.3269143,4.6728 13.3633714,4.62502857 13.3413714,4.5848 C12.9698857,3.9028 11.8673714,3.8236 11.1545714,4.60428571 C10.9949143,4.03982857 10.8164,3.41314286 10.8164,3.41314286 L10.1318857,3.5156 L10.6950857,4.69228571 C10.0665143,4.17685714 8.7616,4.21205714 8.04188571,4.90411429 C8.00542857,4.93931429 8.03057143,5.00217143 8.08085714,5.00154286 C8.54097143,4.99965714 8.8452,5.14422857 9.54354286,5.31017143 C9.4216,5.31205714 9.29525714,5.32651429 9.1664,5.35102857 C8.49194286,5.478 7.73954286,5.75205714 7.42337143,5.82308571 C7.36491429,5.83628571 7.33537143,5.91737143 7.38502857,5.93874286 C7.37245714,5.93308571 7.37748571,5.91925714 7.37434286,5.90794286 C3.81474286,7.17325714 2.9008,9.68942857 3.06737143,12.3646286 C3.16417143,13.9084 3.72422857,15.2227429 4.58851429,16.2749714 Z" id="Clip-8" fill="#FFD700"></path>
        <path d="M1.03771429,10.9044911 L1.03771429,9.47625886 C1.40531476,4.15369186 5.86131316,0.253314286 11.3048,0.253314286 C16.9883429,0.253314286 21.5957714,4.50622857 21.5957714,10.1904 C21.5957714,12.5670286 20.7861714,14.7525714 19.4328571,16.4956 C19.2656571,16.4654286 19.0984571,16.4434286 18.9312571,16.4157714 C20.3336,14.6997714 21.1438286,12.5242857 21.1438286,10.1904 C21.1438286,4.87205714 16.8217714,0.705885714 11.3048,0.705885714 C5.78782857,0.705885714 1.46577143,4.87205714 1.46577143,10.1904 C1.46577143,12.5280571 2.276,14.7048 3.6796,16.4201714 C3.51302857,16.4478286 3.34645714,16.4698286 3.18051429,16.4993714 C1.96149993,14.9322287 1.18251387,13.0063563 1.03771429,10.9044911 L1.03771429,10.9044911 Z" id="Clip-11" fill="#FA6E0F"></path>
        <path d="M19.2644,17.7489714 C20.1481714,18.0651429 20.9533714,18.5623429 21.6127429,19.2003429 C21.6479429,19.2336571 21.6485714,19.2663429 21.6152571,19.2625714 C20.9929714,19.2537714 20.4084,19.3442857 19.8797714,19.5108571 C19.8684571,19.5133714 19.8615429,19.5196571 19.8609143,19.5284571 C19.9574812,20.3608013 19.9058476,21.1869705 19.7164182,21.9622857 L19.6401981,21.9622857 C19.0721152,21.2223449 18.1414579,20.6780149 17.0285714,20.6083429 L18.3152571,20.3619429 C18.3391429,20.3663429 18.3624,20.3562857 18.3680571,20.3399429 C18.6609714,19.4744 18.9589143,18.612 19.2644,17.7489714 Z M3.37097143,17.7464571 C3.67708571,18.6088571 3.97754286,19.4744 4.27108571,20.3399429 C4.27674286,20.3562857 4.3,20.3663429 4.32388571,20.3619429 L5.61057143,20.6083429 C4.49706286,20.6780149 3.56763048,21.2223449 2.99957289,21.9622857 L2.92335325,21.9622857 C2.73392386,21.1869705 2.68229026,20.3608013 2.77885714,19.5284571 C2.77822857,19.5196571 2.77131429,19.5133714 2.76,19.5108571 C2.23511081,19.345464 1.65506742,19.2550558 1.03771429,19.2623996 L1.03771429,19.1900279 C1.69443727,18.5575723 2.49259824,18.060921 3.37097143,17.7464571 Z" id="Combined-Shape" fill="#0AC855"></path>
        <path d="M17.0952,20.1664571 C17.3504967,20.2027209 17.5898932,20.2400074 17.7878545,20.2721656 L18.0038851,20.3079 C18.1967584,20.3403855 18.3152571,20.3619429 18.3152571,20.3619429 L17.0285714,20.6083429 C17.0285714,20.6083429 17.0449143,20.4908 17.0952,20.1664571 Z M5.54331429,20.1664571 C5.5936,20.4908 5.61057143,20.6083429 5.61057143,20.6083429 L4.32388571,20.3619429 C4.32388571,20.3619429 4.40608352,20.3469724 4.54501583,20.3231829 L4.73733751,20.2907958 C4.95363246,20.254963 5.23695824,20.2099736 5.54331429,20.1664571 Z" id="Combined-Shape" fill="#0B4902"></path>
        <path d="M4.59605714,16.2737143 C3.73114286,15.2202286 3.16417143,13.9096571 3.06737143,12.3646286 C2.9008,9.68942857 3.81474286,7.17325714 7.37434286,5.90794286 C7.37748571,5.91925714 7.37245714,5.93308571 7.38502857,5.93874286 C8.90805714,6.59874286 9.33548571,6.57485714 10.1614286,6.02674286 C10.4260571,6.40388571 10.1174286,6.996 9.866,7.20971429 C9.83771429,7.2336 9.8528,7.27634286 9.89114286,7.28011429 C11.5141143,7.44857143 11.7272,6.31022857 11.7529714,6.07451429 C12.7033714,6.88097143 14.1698286,5.63388571 15.1101714,5.8872 C15.1648571,5.90165714 15.1981714,5.81491429 15.1598286,5.77657143 C15.1152,5.73382857 15.0617714,5.69925714 15.0114857,5.66154286 C17.5760571,6.4636 19.3555429,8.29211429 19.546,11.3369143 C19.6673143,13.2810857 19.0318286,14.9568571 17.9312,16.2567429 C13.5186286,15.6218857 9.00737143,15.6288 4.59605714,16.2737143 Z" id="Clip-21" fill="#FA3200"></path>
        <path d="M18.3152571,20.3619429 C13.7028,19.5536 8.93571429,19.5536 4.32388571,20.3619429 C4.3,20.3663429 4.27674286,20.3562857 4.27108571,20.3399429 C3.84428571,19.0809143 3.40428571,17.8250286 2.95045714,16.5722857 C2.94417143,16.5546857 2.96365714,16.5345714 2.9932,16.5295429 C8.47685714,15.5276 14.1616571,15.5276 19.6459429,16.5295429 C19.6754857,16.5345714 19.6949714,16.5546857 19.6880571,16.5722857 C19.2348571,17.8250286 18.7948571,19.0809143 18.3680571,20.3399429 C18.3624,20.3562857 18.3391429,20.3663429 18.3152571,20.3619429 Z" id="Clip-28" fill="#00912D"></path>
    </g>
</svg>