<?xml version="1.0" encoding="UTF-8"?>
<svg width="auto" height="auto" viewBox="0 0 23 22" version="1.1" xmlns="http://www.w3.org/2000/svg" xmlns:xlink="http://www.w3.org/1999/xlink">
    <title>rotten-tomatoes-green-popcorn</title>
    <defs>
        <polygon id="path-1" points="0 0.0272108877 22.9124981 0.0272108877 22.9124981 17.2587727 0 17.2587727"></polygon>
        <polygon id="path-3" points="0.0539837398 0.0732474348 23.7420325 0.0732474348 23.7420325 8.46250386 0.0539837398 8.46250386"></polygon>
    </defs>
    <g id="rotten-tomatoes-green-popcorn" stroke="none" stroke-width="1" fill="none" fill-rule="evenodd">
        <g id="RT_Audience_GreenPopcorn_RGB" transform="translate(0.000000, 4.000000)">
            <g id="Group-5">
                <mask id="mask-2" fill="white">
                    <use xlink:href="#path-1"></use>
                </mask>
                <g id="Clip-2"></g>
                <path d="M14.0963415,12.416139 C14.2428455,12.0492441 14.7621138,11.8257203 15.1349593,11.8518624 C15.5334959,11.8798132 15.9568293,12.3034316 16.030813,12.7200624 C16.0445528,12.7049361 16.0589431,12.6906319 16.0735772,12.6765743 C16.2015447,12.5529333 16.3618699,12.4708896 16.5373171,12.4482823 C16.5104878,12.3280941 16.504065,12.1994384 16.522439,12.0674121 C16.5872358,11.6029362 16.9558537,11.2546204 17.3778862,11.2580732 C17.6502439,11.2602928 17.889187,11.4011975 18.044878,11.6176515 C18.0587805,11.600059 18.0741463,11.5839462 18.0891057,11.5675045 C18.2671545,10.6296743 18.38,9.57009386 18.4056911,8.4456512 C18.4939024,4.57915669 17.5237398,1.4203919 16.2388618,1.39046814 C14.9539024,1.36046218 13.8407317,4.47055977 13.7525203,8.33705427 C13.7525203,8.33705427 13.6844715,9.74733457 14.0963415,12.416139" id="Fill-1" fill="#185A30" mask="url(#mask-2)"></path>
                <path d="M22.7958537,16.6443492 C22.8717886,16.5161867 22.9142276,16.3625398 22.9113008,16.1992744 C22.935935,15.6717449 22.5778049,15.1935403 22.0795122,15.2464823 C22.0939024,15.1861416 22.1033333,15.1234168 22.1069919,15.058719 C22.1368293,14.5302852 21.7764228,14.0748522 21.3019512,14.0415579 C21.2915447,14.0409003 21.2813008,14.0405714 21.2709756,14.0402426 C21.3203252,13.9091206 21.3447967,13.762708 21.3360976,13.6075813 C21.3115447,13.1679322 21.0117073,12.7975024 20.621626,12.7245838 C20.4807317,12.6982772 20.344065,12.7113483 20.2189431,12.7551653 C20.1007317,12.4606958 19.8525203,12.2422688 19.5505691,12.19615 C19.5266667,11.7180276 19.185122,11.3244973 18.7453659,11.2936693 C18.4688618,11.2742682 18.2147967,11.4026773 18.044878,11.6176515 C17.889187,11.4011975 17.6502439,11.260375 17.3778862,11.2581287 C16.9558537,11.2546204 16.5872358,11.6029362 16.522439,12.0674943 C16.504065,12.1994384 16.5104878,12.3280941 16.5373171,12.4483646 C16.3618699,12.4708896 16.2015447,12.5530155 16.0735772,12.6765743 C16.0589431,12.6906319 16.0445528,12.7049361 16.030813,12.7200624 C15.9568293,12.3034316 15.5334959,11.8798954 15.1349593,11.8518624 C14.7621138,11.8257203 14.2360976,12.0547521 14.0963415,12.416139 C14.1576423,13.0463464 14.5472358,14.7642495 15.9563415,16.3053229 L15.9688618,16.3062272 C16.1047154,16.4305259 16.2821138,16.4990052 16.4712195,16.4819882 C16.5884553,16.4713833 16.6964228,16.4289639 16.7894309,16.3635263 L16.8121138,16.3650882 C16.9360976,16.4521466 17.085122,16.4976899 17.2426016,16.4835501 C17.3027642,16.4781244 17.3601626,16.4634913 17.4147154,16.4426105 C17.5496748,16.7247487 17.8506504,16.9070864 18.1865854,16.8771626 C18.446748,16.8539799 18.6678862,16.7084715 18.7978862,16.5036911 L18.84,16.5066506 C18.9698374,16.6367861 19.142439,16.7125819 19.3286179,16.7069096 C19.4825203,16.9423536 19.7652033,17.0872043 20.0771545,17.0595002 C20.1946341,17.0490598 20.3043089,17.0146968 20.4021138,16.962659 C20.5652846,17.1656309 20.8330894,17.2863124 21.1269106,17.2601702 C21.4173984,17.2344391 21.6627642,17.0715848 21.7962602,16.8464168 C21.9273984,16.9528763 22.0917073,17.0100109 22.2661789,16.9943092 C22.4354472,16.9790185 22.5858537,16.8982079 22.6988618,16.7759644 L22.7177236,16.7772797 C22.7434146,16.7396284 22.7653659,16.7010728 22.7857724,16.6621884 C22.7862602,16.6614485 22.7866667,16.6606264 22.7870732,16.6598865 C22.7898374,16.6547074 22.793252,16.6496105 22.7958537,16.6443492" id="Fill-3" fill="#F9D320" mask="url(#mask-2)"></path>
                <path d="M13.0830894,2.88731359 L2.03398374,3.98882019 C2.36252033,3.34447294 2.85536585,2.72881633 3.33121951,2.41198624 L14.0238211,0.998746449 C13.600813,1.50260002 13.3056911,2.18648936 13.0830894,2.88731359 Z M14.0238211,15.5304292 L3.33121951,14.1171894 C2.85536585,13.8004415 2.36252033,13.1847027 2.03398374,12.5404376 L13.0830894,13.6419442 C13.3056911,14.3426863 13.600813,15.0266578 14.0238211,15.5304292 Z M1.57308943,11.4442746 C1.22398374,10.377542 1.11585366,9.75744617 1.0295935,8.86951626 L12.3837398,9.00795474 C12.411626,9.98869761 12.5430894,11.2580732 12.7713008,12.339521 L1.57308943,11.4442746 Z M1.57308943,5.08490105 L12.7713008,4.18965462 C12.5430894,5.27110244 12.411626,6.54047802 12.3837398,7.5213031 L1.0295935,7.65965936 C1.11585366,6.77181167 1.22398374,6.15163361 1.57308943,5.08490105 Z M17.5804878,1.20623974 C16.8721138,0.372238367 16.3635772,-0.0193189082 15.9279675,0.031567918 C15.846748,0.0420083493 3.53455285,1.77775059 3.53455285,1.77775059 C1.58081301,1.97866724 0.0193495935,4.84731958 0,8.26462892 C0.0193495935,11.681856 1.58081301,14.5505084 3.53455285,14.7515072 C3.53455285,14.7515072 15.8698374,16.4935795 15.9279675,16.4976077 C16.0309756,16.49695 16.1326829,16.4829747 16.2329268,16.4569969 C16.1353659,16.4276486 16.0453659,16.3762685 15.9688618,16.3062272 L15.9563415,16.3053229 C14.5472358,14.7643317 14.1576423,13.0463464 14.0963415,12.416139 C14.0965041,12.4156457 14.0968293,12.4152347 14.0969919,12.4147414 C14.0968293,12.4152347 14.0965041,12.4156457 14.0963415,12.416139 C13.6844715,9.74733457 13.7525203,8.33705427 13.7525203,8.33705427 C13.8407317,4.47055977 14.9539024,1.36046218 16.2388618,1.39038593 C17.5237398,1.4203919 18.4939024,4.57915669 18.4056911,8.4456512 C18.38,9.57009386 18.2671545,10.6296743 18.0891057,11.5675045 C18.2720325,11.3633818 18.5173984,11.2773921 18.7453659,11.2936693 C18.7873171,11.296711 18.8281301,11.3038631 18.8681301,11.3131526 C19.6484553,6.99582879 18.8304065,2.7801142 17.5804878,1.20623974 L17.5804878,1.20623974 Z" id="Fill-4" fill="#129B47" mask="url(#mask-2)"></path>
            </g>
            <path d="M12.7713008,4.18965462 L1.57308943,5.08490105 C1.22398374,6.15163361 1.11585366,6.77181167 1.0295935,7.65965936 L12.3837398,7.52122089 C12.411626,6.54047802 12.5430894,5.27110244 12.7713008,4.18965462" id="Fill-6" fill="#FFFFFE"></path>
            <path d="M14.0238211,0.998746449 L3.33121951,2.41198624 C2.85536585,2.72881633 2.36252033,3.34447294 2.03398374,3.98882019 L13.0830894,2.88731359 C13.3056911,2.18648936 13.600813,1.50260002 14.0238211,0.998746449" id="Fill-7" fill="#FFFFFE"></path>
            <path d="M2.03398374,12.5403554 C2.36252033,13.1847027 2.85536585,13.8004415 3.33121951,14.1171894 L14.0238211,15.5304292 C13.600813,15.0266578 13.3056911,14.3426863 13.0830894,13.6419442 L2.03398374,12.5403554" id="Fill-8" fill="#FFFFFE"></path>
            <g id="Group-12" transform="translate(0.975610, 8.796269)">
                <mask id="mask-4" fill="white">
                    <use xlink:href="#path-3"></use>
                </mask>
                <g id="Clip-10"></g>
                <path d="M11.4081301,0.211685909 L0.0539837398,0.0732474348 C0.140243902,0.96109513 0.248373984,1.58127319 0.597479675,2.64800575 L11.7956911,3.54325218 C11.5674797,2.46180436 11.4360163,1.19242878 11.4081301,0.211685909" id="Fill-9" fill="#FFFFFE" mask="url(#mask-4)"></path>
            </g>
        </g>
    </g>
</svg>