<svg xmlns="http://www.w3.org/2000/svg" viewBox="0 0 59.33 59.34"><g id="Layer_2" data-name="Layer 2"><g id="Layer_1-2" data-name="Layer 1"><path d="M4.86,57a2.53,2.53,0,0,1-1.77-.73,2.5,2.5,0,0,1,0-3.54L13.47,42.33A2.5,2.5,0,1,1,17,45.87L6.62,56.25A2.49,2.49,0,0,1,4.86,57Z"/><path d="M44.1,17.74a2.51,2.51,0,0,1-1.77-4.27L52.71,3.09a2.5,2.5,0,1,1,3.54,3.53L45.87,17A2.5,2.5,0,0,1,44.1,17.74Z"/><path d="M15.24,17.74A2.5,2.5,0,0,1,13.47,17L3.09,6.62A2.5,2.5,0,0,1,6.62,3.09L17,13.47A2.49,2.49,0,0,1,17,17,2.46,2.46,0,0,1,15.24,17.74Z"/><path d="M54.48,57a2.53,2.53,0,0,1-1.77-.73L42.33,45.87a2.5,2.5,0,1,1,3.54-3.54L56.25,52.71A2.5,2.5,0,0,1,54.48,57Z"/><path d="M29.67,12.78a2.5,2.5,0,0,1-2.5-2.5V2.5a2.5,2.5,0,0,1,5,0v7.78A2.5,2.5,0,0,1,29.67,12.78Z"/><path d="M29.67,59.34a2.5,2.5,0,0,1-2.5-2.5V49.06a2.5,2.5,0,0,1,5,0v7.78A2.5,2.5,0,0,1,29.67,59.34Z"/><path d="M56.83,32.17H49.06a2.5,2.5,0,0,1,0-5h7.77a2.5,2.5,0,0,1,0,5Z"/><path d="M10.28,32.17H2.5a2.5,2.5,0,0,1,0-5h7.78a2.5,2.5,0,1,1,0,5Z"/><path d="M38.61,26.85c-.09-.32-.34-.47-.75-.47H32.08l2.66-5.08a.84.84,0,0,0,.08-.77.69.69,0,0,0-.66-.31h-6.1a1.32,1.32,0,0,0-.84.22,1.93,1.93,0,0,0-.47.66L23,29.59a.76.76,0,0,0,0,.8.9.9,0,0,0,.77.31h4.88l-3.74,9c-.17.41-.11.68.18.82a.77.77,0,0,0,.87-.29L38.3,27.78A1,1,0,0,0,38.61,26.85Z"/></g></g></svg>