<?xml version="1.0" encoding="UTF-8"?>
<svg width="auto" height="auto" viewBox="0 0 500 500" version="1.1" xmlns="http://www.w3.org/2000/svg" xmlns:xlink="http://www.w3.org/1999/xlink">
    <title>photo_sensitivity_wht</title>
    <defs>
        <polygon id="path-1" points="0 0 41.6666667 0 41.6666667 106.47 0 106.47"></polygon>
        <polygon id="path-3" points="0 0 106.474167 0 106.474167 41.6666667 0 41.6666667"></polygon>
    </defs>
    <g id="photo_sensitivity_wht" stroke="none" stroke-width="1" fill="none" fill-rule="evenodd">
        <g id="photo_sensitivity">
            <path d="M40.4741667,474.813333 C35.1408333,474.813333 29.8075,472.78 25.7408333,468.713333 C17.6075,460.571667 17.6075,447.38 25.7408333,439.246667 L112.240833,352.763333 C120.365833,344.621667 133.565833,344.621667 141.699167,352.763333 C149.840833,360.896667 149.840833,374.088333 141.699167,382.221667 L55.2075,468.713333 C51.1408333,472.78 45.8075,474.813333 40.4741667,474.813333" id="Fill-1" fill="#FFFFFF"></path>
            <path d="M367.488333,147.799167 C362.155,147.799167 356.83,145.765833 352.755,141.699167 C344.621667,133.565833 344.621667,120.365833 352.755,112.2325 L439.255,25.7408333 C447.396667,17.5991667 460.58,17.5991667 468.713333,25.7408333 C476.855,33.8741667 476.855,47.0658333 468.713333,55.1991667 L382.221667,141.699167 C378.146667,145.765833 372.821667,147.799167 367.488333,147.799167" id="Fill-3" fill="#FFFFFF"></path>
            <path d="M126.969167,147.799167 C121.635833,147.799167 116.3025,145.765833 112.235833,141.699167 L25.7441667,55.1991667 C17.6025,47.0658333 17.6025,33.8741667 25.7441667,25.7408333 C33.8775,17.5991667 47.0775,17.5991667 55.2025,25.7408333 L141.7025,112.2325 C149.835833,120.365833 149.835833,133.565833 141.7025,141.699167 C137.635833,145.765833 132.3025,147.799167 126.969167,147.799167" id="Fill-5" fill="#FFFFFF"></path>
            <path d="M453.9875,474.813333 C448.654167,474.813333 443.329167,472.78 439.254167,468.713333 L352.7625,382.221667 C344.620833,374.088333 344.620833,360.896667 352.7625,352.763333 C360.895833,344.621667 374.079167,344.621667 382.220833,352.763333 L468.720833,439.246667 C476.854167,447.38 476.854167,460.571667 468.720833,468.713333 C464.645833,472.78 459.320833,474.813333 453.9875,474.813333" id="Fill-7" fill="#FFFFFF"></path>
            <g id="Group-11" transform="translate(226.395833, 0.000000)">
                <mask id="mask-2" fill="white">
                    <use xlink:href="#path-1"></use>
                </mask>
                <g id="Clip-10"></g>
                <path d="M20.8333333,106.47 C9.325,106.47 0,97.145 0,85.6366667 L0,20.8283333 C0,9.32 9.325,-0.005 20.8333333,-0.005 C32.3416667,-0.005 41.6666667,9.32 41.6666667,20.8283333 L41.6666667,85.6366667 C41.6666667,97.145 32.3416667,106.47 20.8333333,106.47" id="Fill-9" fill="#FFFFFF" mask="url(#mask-2)"></path>
            </g>
            <path d="M247.229167,494.458333 C235.720833,494.458333 226.395833,485.133333 226.395833,473.625 L226.395833,408.816667 C226.395833,397.308333 235.720833,387.983333 247.229167,387.983333 C258.7375,387.983333 268.0625,397.308333 268.0625,408.816667 L268.0625,473.625 C268.0625,485.133333 258.7375,494.458333 247.229167,494.458333" id="Fill-12" fill="#FFFFFF"></path>
            <path d="M473.625,268.058333 L408.816667,268.058333 C397.308333,268.058333 387.983333,258.733333 387.983333,247.225 C387.983333,235.716667 397.308333,226.391667 408.816667,226.391667 L473.625,226.391667 C485.133333,226.391667 494.458333,235.716667 494.458333,247.225 C494.458333,258.733333 485.133333,268.058333 473.625,268.058333" id="Fill-14" fill="#FFFFFF"></path>
            <g id="Group-18" transform="translate(0.000000, 226.391667)">
                <mask id="mask-4" fill="white">
                    <use xlink:href="#path-3"></use>
                </mask>
                <g id="Clip-17"></g>
                <path d="M85.6408333,41.6666667 L20.8325,41.6666667 C9.32416667,41.6666667 -0.000833333333,32.3416667 -0.000833333333,20.8333333 C-0.000833333333,9.325 9.32416667,0 20.8325,0 L85.6408333,0 C97.1491667,0 106.474167,9.325 106.474167,20.8333333 C106.474167,32.3416667 97.1491667,41.6666667 85.6408333,41.6666667" id="Fill-16" fill="#FFFFFF" mask="url(#mask-4)"></path>
            </g>
            <path d="M321.733333,223.713333 C321,221.113333 318.941667,219.821667 315.533333,219.821667 L267.3,219.821667 L289.525,177.521667 C290.816667,174.93 291.016667,172.78 290.133333,171.08 C289.233333,169.38 287.416667,168.53 284.658333,168.53 L233.85,168.53 C230.608333,168.53 228.258333,169.138333 226.8,170.355 C225.341667,171.571667 224.05,173.388333 222.916667,175.821667 L191.8,246.563333 C190.5,249.313333 190.458333,251.546667 191.675,253.246667 C192.891667,254.955 195.033333,255.805 198.116667,255.805 L238.725,255.805 L207.6,331.163333 C206.141667,334.563333 206.625,336.83 209.058333,337.971667 C211.491667,338.946667 213.916667,338.13 216.35,335.538333 L319.183333,231.488333 C321.608333,228.896667 322.466667,226.305 321.733333,223.713333" id="Fill-19" fill="#FFFFFF"></path>
        </g>
    </g>
</svg>