<svg id="Layer_1" data-name="Layer 1" xmlns="http://www.w3.org/2000/svg" viewBox="0 0 393 308"><g id="Asset_Empty_empty_music_videos" data-name="Asset Empty empty music videos"><path id="music_videos" data-name="music videos" d="M37.77,0H355.23C379.77,0,393,12.5,393,36.75V212.53c0,24.25-13.23,36.75-37.77,36.75H37.77C13.23,249.28,0,236.78,0,212.53V36.75C0,12.5,14.76,0,37.77,0Zm5.36,26.52q-14.37,0-14.37,14.21V208.55c0,9.29,4.79,14.21,14.37,14.21H349.87c9.58,0,14.37-4.92,14.37-14.21V40.73q0-14.22-14.37-14.21ZM243.85,95.66l-36.23,8.71c-3.45.76-4.79,2.27-4.79,8v50c0,22.36-15.53,38.08-37.77,38.08-15.72,0-25.69-9.47-25.69-22.54,0-15.16,11.89-23.49,26.07-27.09l14-3.6c7.86-2.08,8.43-3.41,8.43-10.23V70.09c0-9.1,1.73-10.61,9.4-12.51l46-11.36c8.24-2.08,10.35.57,10.35,6.44V83.35C253.63,92.25,251.33,93.76,243.85,95.66Zm63.07,197.19A15.25,15.25,0,0,1,291.78,308H101.22a15.16,15.16,0,0,1,0-30.31H291.78A15.26,15.26,0,0,1,306.92,292.85Z"/></g></svg>