<svg id="Layer_1" data-name="Layer 1" xmlns="http://www.w3.org/2000/svg" viewBox="0 0 393 308"><g id="Asset_Empty_empty_tv_movies" data-name="Asset Empty empty tv movies"><path id="tv_movies" data-name="tv movies" d="M37.77,0H355.23C379.77,0,393,12.5,393,36.75V212.53c0,24.25-13.23,36.75-37.77,36.75H37.77C13.23,249.28,0,236.78,0,212.53V36.75C0,12.5,14.76,0,37.77,0Zm5.36,26.52q-14.37,0-14.37,14.21V208.55c0,9.29,4.79,14.21,14.37,14.21H349.87c9.58,0,14.37-4.92,14.37-14.21V40.73q0-14.22-14.37-14.21ZM306.92,292.85A15.25,15.25,0,0,1,291.78,308H101.22a15.16,15.16,0,0,1,0-30.31H291.78A15.26,15.26,0,0,1,306.92,292.85Z"/></g></svg>