<?xml version="1.0" encoding="UTF-8"?>
<svg width="68px" height="52px" viewBox="0 0 68 52" version="1.1" xmlns="http://www.w3.org/2000/svg" xmlns:xlink="http://www.w3.org/1999/xlink">
    <title>assets/tv</title>
    <g id="assets/tv" stroke="none" stroke-width="1" fill="none" fill-rule="evenodd">
        <path d="M6.62220538,42.480315 L61.3777946,42.480315 C65.7840091,42.480315 68,40.3818898 68,35.9035433 L68,6.57677165 C68,2.0984252 65.7840091,0 61.3777946,0 L6.62220538,0 C2.21599091,0 0,2.0984252 0,6.57677165 L0,35.9035433 C0,40.3818898 2.21599091,42.480315 6.62220538,42.480315 Z M6.55096628,38.3602362 C4.77302008,38.3602362 4,37.6437008 4,35.8523622 L4,6.65354331 C4,4.83661417 4.77302008,4.12007874 6.55096628,4.12007874 L61.1519515,4.12007874 C62.9298977,4.12007874 63.7029178,4.83661417 63.7029178,6.65354331 L63.7029178,35.8523622 C63.7029178,37.6437008 62.9298977,38.3602362 61.1519515,38.3602362 L6.55096628,38.3602362 Z M52.7199697,49.5944882 C52.7199697,48.2637795 51.6635089,47.1889764 50.3493748,47.1889764 L17.5990906,47.1889764 C16.2849564,47.1889764 15.2027283,48.2637795 15.2027283,49.5944882 C15.2027283,50.9251969 16.2849564,52 17.5990906,52 L50.3493748,52 C51.6635089,52 52.7199697,50.9251969 52.7199697,49.5944882 Z" id="Shape" fill="#000000" fill-rule="nonzero"></path>
    </g>
</svg>