<svg id="Layer_1" data-name="Layer 1" xmlns="http://www.w3.org/2000/svg" viewBox="0 0 100 100"><g id="EmptyPlaylist"><rect width="100" height="100" style="fill:#fff"/><rect id="Fill" width="100" height="100" style="fill:#f5f5f5"/><path id="playlist" d="M51.87,69.59c2.81,0,6.93-2,6.93-7.56V44.45c0-1.11.25-1.41,1.27-1.62L68.56,41a1.11,1.11,0,0,0,.94-1.15v-7.2a1.33,1.33,0,0,0-1.26-1.4,1.36,1.36,0,0,0-.4,0l-9.63,2.09c-1.09.23-1.68.83-1.68,1.81l.06,21.43a1.7,1.7,0,0,1-1.38,1.93l-3.09.65c-3.77.78-5.57,2.65-5.57,5.52S48.74,69.59,51.87,69.59ZM49.4,40.5a1,1,0,0,0,1.06-.94V39.5a1,1,0,0,0-1-1.06H31.55a1,1,0,0,0-1.05,1.05h0a1,1,0,0,0,1,1H49.4Zm0,6.78a1,1,0,0,0,1.06-.94v-.06a1,1,0,0,0-1-1H31.55a1,1,0,1,0,0,2.07Zm0,6.8a1,1,0,0,0,1.06-.94v-.06a1,1,0,0,0-1-1H31.55a1,1,0,0,0-1.05,1v0a1,1,0,0,0,1,1H49.4Z" style="fill:#3c3c43;fill-opacity:0.18000000715255737"/></g></svg>