<svg id="Layer_1" data-name="Layer 1" xmlns="http://www.w3.org/2000/svg" viewBox="0 0 100 100"><g id="PlaylistFolder"><rect width="100" height="100" style="fill:#fff"/><rect id="Fill" width="100" height="100" style="fill:#f5f5f5"/><path id="folder" d="M66.51,67.36c3.42,0,5.37-2,5.37-5.7V41.56c0-3.75-1.95-5.7-5.76-5.7H47.24A4.19,4.19,0,0,1,44,34.68l-1.14-1a5.12,5.12,0,0,0-4.12-1.45H33.13c-3.24,0-5,1.78-5,5.35v24c0,3.79,1.95,5.7,5.76,5.7ZM69.46,43.2H30.54V37.75c0-2.07,1.05-3.11,3.06-3.11h4.52a4.17,4.17,0,0,1,3.24,1.24l1.11,1a5.4,5.4,0,0,0,4.18,1.43H66.06a3.07,3.07,0,0,1,3.4,2.7,2.89,2.89,0,0,1,0,.72ZM66.06,65H33.92c-2.19,0-3.38-1.17-3.38-3.42V45.48H69.46V61.54A3.06,3.06,0,0,1,66.83,65,2.84,2.84,0,0,1,66.06,65Z" style="fill:#3c3c43;fill-opacity:0.18000000715255737"/></g></svg>