<?xml version="1.0" encoding="UTF-8"?>
<svg width="auto" height="auto" viewBox="0 0 23 22" version="1.1" xmlns="http://www.w3.org/2000/svg" xmlns:xlink="http://www.w3.org/1999/xlink">
    <title>rotten-tomatoes-rotten</title>
    <g id="rotten-tomatoes-rotten" stroke="none" stroke-width="1" fill="none" fill-rule="evenodd">
        <path d="M13.3751636,15.2618734 C12.6608798,15.2769365 12.0979215,16.0281969 12.3451393,16.903753 C12.4810941,17.3850744 12.8582177,18.090946 13.0958165,18.5289734 C13.933957,20.0746885 12.6948933,21.8239054 11.2449063,21.9718431 C8.83530192,22.217741 7.83016796,20.8115842 7.89234426,19.3721089 C7.96225542,17.7561658 9.32428333,16.1050088 7.92734942,15.4024292 C6.46338014,14.6661321 5.27330392,17.5453819 3.87240343,18.1880083 C2.60448287,18.769684 0.844407634,18.3186883 0.21867803,16.9023564 C-0.220820164,15.9070935 -0.140893372,13.990686 1.81592474,13.2594765 C3.03822951,12.8027948 5.762087,13.8567141 5.90181014,12.5217828 C6.0628537,10.9829509 3.04031197,10.8531687 2.13027701,10.4841722 C0.52003972,9.83137069 -0.430355292,8.43449113 0.314272854,6.93596049 C0.872967083,5.81191287 2.51682123,5.35453282 3.77155287,5.84692713 C5.27469223,6.43678279 5.51596008,8.00514245 6.28607356,8.65734544 C6.94948577,9.21946901 7.85743827,9.2897968 8.45123682,8.90334309 C8.88914838,8.6182412 9.03492057,7.99207445 8.86971209,7.42007507 C8.65055798,6.66073441 8.06895669,6.18689467 7.50153596,5.72263149 C6.49174126,4.89685351 5.06614875,4.18679219 5.92848546,1.93281137 C6.63533183,0.08563443 8.7084702,0.0190973549 8.7084702,0.0190973549 C9.53213265,-0.0740745012 10.2697201,0.176112881 10.8707577,0.716290185 C11.6742897,1.43842195 11.8307717,2.40365844 11.6963043,3.43343689 C11.5734391,4.37343517 11.2427247,5.19671925 11.0702772,6.12803879 C10.8701627,7.2092912 11.4446241,8.29882333 12.5371222,8.34121952 C13.9741187,8.39708273 14.4049895,7.28600336 14.5808087,6.58172787 C14.8382404,5.55125113 15.1760947,4.59459364 16.1267872,3.992069 C17.4911951,3.12728654 19.3864318,3.31682243 20.2657257,4.97885273 C20.9612673,6.29393258 20.7379483,8.10429965 19.6710347,9.09287898 C19.1923664,9.53629322 18.6168142,9.69261046 17.9942579,9.69699971 C17.1014776,9.70338408 16.2090939,9.68133806 15.3803741,10.101609 C14.8162258,10.3876087 14.5703964,10.8536675 14.5704955,11.4783379 C14.5704955,12.0871471 14.8855419,12.4847735 15.3960421,12.7435398 C16.3575436,13.2310461 17.4189039,13.3307021 18.4575556,13.5136541 C19.9637691,13.7790044 21.2881144,14.3126976 22.138353,15.7187546 C23.1371404,17.4208867 22.1159417,19.8179173 20.1971037,19.9193689 C15.9244911,20.1450163 15.0514446,15.2268591 13.3751636,15.2618734 Z" id="Fill-1" fill="#0AC855"></path>
    </g>
</svg>