<?xml version="1.0" encoding="UTF-8"?>
<svg width="298px" height="44px" viewBox="0 0 298 44" version="1.1" xmlns="http://www.w3.org/2000/svg" xmlns:xlink="http://www.w3.org/1999/xlink">
    <title>product_header_DolbyAudio</title>
    <g id="product_header_DolbyAudio" stroke="none" stroke-width="1" fill="none" fill-rule="evenodd">
        <path d="M184.793842,33.8246716 L181.78895,33.8246716 L196.424322,0.0375464649 L199.143257,0.0375464649 L213.492672,33.8246716 L210.48778,33.8246716 L206.676583,24.7102672 L188.609727,24.7102672 L184.793842,33.8246716 Z M189.608232,22.2275072 L205.67339,22.2275072 L197.713472,2.90046442 L189.608232,22.2275072 Z M234.63005,33.8246716 C234.489416,32.3932126 234.348781,29.337869 234.348781,28.0988357 L234.348781,10.4097574 L231.775168,10.4097574 L231.775168,22.2744403 C231.775168,28.4789936 228.249928,31.6282034 224.434043,31.6282034 C219.479018,31.6282034 218.142989,27.9533431 218.142989,23.5651001 L218.142989,10.4097574 L215.522498,10.4097574 L215.522498,24.569468 C215.522498,29.8165865 218.049233,33.8246716 223.862129,33.8246716 C227.199856,33.8246716 230.537584,31.820629 231.775168,28.8122185 L231.868925,28.8122185 C231.868925,29.9573857 232.004871,32.627878 232.103315,33.8246716 L234.63005,33.8246716 L234.63005,33.8246716 Z M249.8514,33.8669114 C243.082189,33.8669114 238.506877,28.7605921 238.506877,22.1289478 C238.506877,15.5442365 243.082189,10.4379173 249.8514,10.4379173 C253.329762,10.4379173 256.808124,12.2026011 258.716066,15.5442365 L258.809823,15.5442365 L258.809823,0.0469330812 L261.430314,0.0469330812 L261.430314,33.8246716 L258.809823,33.8246716 L258.809823,28.8591516 L258.716066,28.8591516 C256.812812,32.1022275 253.33445,33.8669114 249.8514,33.8669114 Z M250.090479,31.6235101 C255.331461,31.6235101 259.100468,27.4699324 259.100468,22.1289478 C259.100468,16.7832698 255.336149,12.5827591 250.090479,12.5827591 C244.511974,12.5827591 241.225812,16.9240691 241.225812,22.1289478 C241.225812,27.3760662 244.516661,31.6235101 250.090479,31.6235101 Z M268.860508,3.95645874 C267.90888,3.95645874 266.952565,3.14451644 266.952565,1.99934926 C266.952565,0.854182077 267.904192,0.042239773 268.860508,0.042239773 C269.863701,0.042239773 270.815328,0.854182077 270.815328,1.99934926 C270.815328,3.14920975 269.863701,3.95645874 268.860508,3.95645874 Z M270.196536,33.8246716 L267.576045,33.8246716 L267.576045,10.419144 L270.196536,10.419144 L270.196536,33.8246716 Z M286.275757,33.8481381 C279.412789,33.8481381 274.598399,28.8356851 274.598399,22.1101745 C274.598399,15.3330376 279.412789,10.419144 286.275757,10.419144 C293.185603,10.419144 297.999997,15.3330376 297.999997,22.1101745 C298.004681,28.8356851 293.19029,33.8481381 286.275757,33.8481381 Z M286.275757,12.657852 C280.748818,12.657852 277.265768,16.8114297 277.265768,22.1054812 C277.265768,27.4042261 280.74413,31.5061774 286.275757,31.5061774 C291.854262,31.5061774 295.332624,27.4042261 295.332624,22.1054812 C295.332624,16.8114297 291.854262,12.657852 286.275757,12.657852 Z M2.84217094e-14,33.8246716 L4.97846423,33.8246716 C14.2744102,33.8246716 21.8546142,26.2355924 21.8546142,16.9287624 C21.8546142,7.62193238 14.2744102,0.0328531568 4.97846423,0.0328531568 L2.84217094e-14,0.0328531568 L2.84217094e-14,33.8246716 Z M48.0126466,0.0328531568 L43.0341823,0.0328531568 C33.7382364,0.0328531568 26.1580324,7.62193238 26.1580324,16.9287624 C26.1580324,26.2355924 33.7382364,33.8246716 43.0341823,33.8246716 L48.0126466,33.8246716 L48.0126466,0.0328531568 Z M70.4251113,0.0328531568 L58.2367807,0.0328531568 L58.2367807,33.8246716 L70.4251113,33.8246716 C79.7304328,33.8246716 87.3012612,26.244979 87.3012612,16.9287624 C87.3012612,7.61254576 79.7304328,0.0328531568 70.4251113,0.0328531568 Z M70.4251113,28.6995791 L63.3511917,28.6995791 L63.3511917,5.15325231 L70.4251113,5.15325231 C76.9036777,5.15325231 82.1821624,10.4426106 82.1821624,16.9240691 C82.1821624,23.4149142 76.9036777,28.6995791 70.4251113,28.6995791 Z M101.589735,10.4050641 C95.1392953,10.4050641 89.8936253,15.6568759 89.8936253,22.1148678 C89.8936253,28.5728598 95.1392953,33.8246716 101.589735,33.8246716 C108.040174,33.8246716 113.285844,28.5728598 113.285844,22.1148678 C113.285844,15.6568759 108.040174,10.4050641 101.589735,10.4050641 Z M101.589735,29.1642166 C97.6754056,29.1642166 94.5392544,25.9774604 94.5392544,22.1054812 C94.5392544,18.1865689 97.7222838,15.0467458 101.589735,15.0467458 C105.457186,15.0467458 108.640215,18.233502 108.640215,22.1054812 C108.640215,26.0197002 105.461874,29.1642166 101.589735,29.1642166 Z M116.595445,33.8246716 L121.709856,33.8246716 L121.709856,0 L116.595445,0 L116.595445,33.8246716 Z M137.826579,10.4003708 C135.342035,10.4003708 133.035628,11.1841532 131.141748,12.5123594 L131.141748,0 L126.013274,0 L126.013274,33.8246716 L131.141748,33.8246716 L131.141748,31.7079896 C133.040315,33.0361958 135.342035,33.8199783 137.826579,33.8199783 C144.277019,33.8199783 149.522688,28.5681665 149.522688,22.1101745 C149.518001,15.6521826 144.272331,10.4003708 137.826579,10.4003708 Z M137.826579,29.1266702 C134.699803,29.1266702 132.069937,27.0897744 131.141748,24.2925628 C130.907358,23.5932599 130.776099,22.8470239 130.776099,22.0679348 C130.776099,21.2888456 130.907358,20.5379163 131.141748,19.8386134 C132.079312,17.0226285 134.732618,15.0091994 137.826579,15.0091994 C141.69403,15.0091994 144.877059,18.1959556 144.877059,22.0679348 C144.877059,25.9821537 141.69403,29.1266702 137.826579,29.1266702 Z M168.264591,10.4144507 L161.598511,25.4189568 L154.932432,10.4144507 L149.344551,10.4144507 L158.804571,31.7032963 C158.804571,31.7032963 156.488788,36.9175616 156.4841,36.9316416 C155.869996,38.3067808 154.252698,38.9309908 152.883855,38.3161675 L152.147867,37.9876359 L150.080539,42.6293176 L150.080539,42.6293176 L150.080539,42.6293176 L150.089915,42.6340109 L151.86191,43.42718 C155.185574,44.9149587 159.113967,43.4037135 160.600006,40.0620781 C160.614069,40.0339182 172.713331,12.9582237 173.852471,10.4144507 L168.264591,10.4144507 L168.264591,10.4144507 Z" id="_x3C_Compound_Path_x3E_" fill="#000000" fill-rule="nonzero"></path>
    </g>
</svg>