<?xml version="1.0" encoding="UTF-8"?>
<svg width="312px" height="44px" viewBox="0 0 312 44" version="1.1" xmlns="http://www.w3.org/2000/svg" xmlns:xlink="http://www.w3.org/1999/xlink">
    <title>product_header_DolbyAtmos</title>
    <g id="product_header_DolbyAtmos" stroke="none" stroke-width="1" fill="none" fill-rule="evenodd">
        <path d="M185.284223,33.8337025 L182.271433,33.8337025 L196.959371,0.0234565325 L199.685452,0.0234565325 L214.086681,33.8337025 L211.073892,33.8337025 L207.247978,24.7138027 L189.114837,24.7138027 L185.284223,33.8337025 Z M190.115967,22.2274102 L206.242148,22.2274102 L198.251909,2.8851535 L190.115967,22.2274102 Z M226.918064,10.4193917 L220.554074,10.4193917 L220.554074,0 L217.921996,0 L217.921996,10.4193917 L213.282957,10.4193917 L213.282957,12.6149232 L217.973697,12.6149232 L217.973697,28.100926 C217.973697,32.4450758 220.699779,33.8337025 223.42586,33.8337025 C224.7654,33.8337025 225.912234,33.5944459 226.965065,33.21445 L226.819361,30.9720055 C226.006237,31.3520014 225.000407,31.591258 224.09328,31.591258 C221.987617,31.591258 220.554074,30.6858358 220.554074,27.4863648 L220.554074,12.6196145 L226.918064,12.6196145 L226.918064,10.4193917 L226.918064,10.4193917 Z M231.731007,33.8337025 L234.363086,33.8337025 L234.363086,21.9271666 C234.363086,15.7205681 237.85529,12.5680101 241.394495,12.5680101 C245.986532,12.5680101 247.086365,16.0536509 247.086365,20.1632353 L247.086365,33.8337025 L249.718444,33.8337025 L249.718444,21.6409969 C249.718444,16.7198164 252.016812,12.5680101 256.65585,12.5680101 C261.153884,12.5680101 262.733131,16.2459944 262.733131,20.6370573 L262.733131,33.8337025 L265.318209,33.8337025 L265.318209,19.6847221 C265.318209,14.4304588 262.780133,10.4193917 257.041262,10.4193917 C253.356352,10.4193917 250.484566,12.3287535 249.051024,15.7205681 L248.957021,15.7205681 C247.711484,11.9956707 245.178108,10.4193917 241.826908,10.4193917 C238.668414,10.4193917 235.608623,12.3756666 234.316084,15.4343984 L234.222082,15.4343984 C234.222082,14.2428065 234.128079,11.662588 234.029376,10.4193917 L231.543002,10.4193917 C231.684006,11.9018446 231.735708,14.862059 231.735708,16.1005639 L231.735708,33.8337025 L231.731007,33.8337025 Z M281.082478,33.8665416 C274.192073,33.8665416 269.360329,28.851535 269.360329,22.1195102 C269.360329,15.335881 274.192073,10.4193917 281.082478,10.4193917 C288.019885,10.4193917 292.851629,15.335881 292.851629,22.1195102 C292.851629,28.8562263 288.019885,33.8665416 281.082478,33.8665416 Z M281.082478,12.6665276 C275.531613,12.6665276 272.039409,16.8230251 272.039409,22.1242015 C272.039409,27.4253778 275.531613,31.530271 281.082478,31.530271 C286.680345,31.530271 290.172549,27.4253778 290.172549,22.1242015 C290.172549,16.8183338 286.680345,12.6665276 281.082478,12.6665276 Z M311.572287,14.21935 C310.138745,11.7845619 307.31396,10.4475396 304.061463,10.4475396 C300.183848,10.4475396 296.451937,12.3569013 296.451937,16.6541381 C296.451937,24.9155288 309.419623,21.2375445 309.419623,27.3034038 C309.419623,30.4090488 306.693542,31.6475537 303.915759,31.6475537 C301.189678,31.6475537 298.797306,30.2167052 297.504768,28.208826 L295.446107,29.6912789 C297.359064,32.5107541 300.564559,33.8477764 303.915759,33.8477764 C307.98138,33.8477764 312,31.8398972 312,27.1157516 C312,23.4846804 309.273919,21.7676622 304.536178,20.7168095 C300.851268,19.9052135 298.938311,19.0467044 298.938311,16.4664858 C298.938311,13.698615 301.617391,12.596158 303.96276,12.596158 C306.449135,12.596158 308.460795,13.7877498 309.560627,15.6548898 L311.572287,14.21935 Z M0,33.796172 L4.99154879,33.796172 C14.3119266,33.796172 21.9120531,26.2103294 21.9120531,16.9074686 C21.9120531,7.60460784 14.3119266,0.018765226 4.99154879,0.018765226 L0,0.018765226 L0,33.796172 Z M48.1388349,0.018765226 L43.1472861,0.018765226 C33.8269083,0.018765226 26.2267818,7.60460784 26.2267818,16.9074686 C26.2267818,26.2103294 33.8269083,33.796172 43.1472861,33.796172 L48.1388349,33.796172 L48.1388349,0.018765226 Z M70.6102047,0.018765226 L58.3898405,0.018765226 L58.3898405,33.796172 L70.6102047,33.796172 C79.9399828,33.796172 87.5307091,26.219712 87.5307091,16.9074686 C87.5307091,7.59522523 79.9399828,0.018765226 70.6102047,0.018765226 Z M70.6102047,28.6732653 L63.5176933,28.6732653 L63.5176933,5.13698062 L70.6102047,5.13698062 C77.1057983,5.13698062 82.3981561,10.424083 82.3981561,16.9027773 C82.3981561,23.3908542 77.1010982,28.6732653 70.6102047,28.6732653 Z M101.856736,10.4193917 C95.3893433,10.4193917 90.1298866,15.6689637 90.1298866,22.1242015 C90.1298866,28.5794392 95.3893433,33.8290112 101.856736,33.8290112 C108.324129,33.8290112 113.583586,28.5794392 113.583586,22.1242015 C113.583586,15.6689637 108.324129,10.4193917 101.856736,10.4193917 Z M101.856736,29.1377047 C97.9321191,29.1377047 94.7877254,25.9523076 94.7877254,22.0819797 C94.7877254,18.1647388 97.9791205,15.0262547 101.856736,15.0262547 C105.734352,15.0262547 108.925747,18.2116518 108.925747,22.0819797 C108.925747,25.9945293 105.739052,29.1377047 101.856736,29.1377047 Z M116.901885,33.8337025 L122.029737,33.8337025 L122.029737,0.0234565325 L116.901885,0.0234565325 L116.901885,33.8337025 Z M138.188819,10.4193917 C135.697745,10.4193917 133.385276,11.2028399 131.486419,12.5304797 L131.486419,0.0234565325 L126.344466,0.0234565325 L126.344466,33.8337025 L131.486419,33.8337025 L131.486419,31.7179233 C133.389976,33.045563 135.697745,33.8290112 138.188819,33.8290112 C144.656212,33.8290112 149.915669,28.5794392 149.915669,22.1242015 C149.910969,15.6689637 144.651512,10.4193917 138.188819,10.4193917 Z M138.188819,29.1377047 C135.053826,29.1377047 132.417047,27.1016777 131.486419,24.305659 C131.251412,23.6066543 131.119808,22.8607366 131.119808,22.0819797 C131.119808,21.3032228 131.251412,20.5526138 131.486419,19.8536091 C132.426447,17.0388252 135.086727,15.0262547 138.188819,15.0262547 C142.066435,15.0262547 145.25783,18.2116518 145.25783,22.0819797 C145.25783,25.9992206 142.066435,29.1377047 138.188819,29.1377047 Z M168.706829,10.4287744 L162.02323,25.4268812 L155.33963,10.4287744 L149.737063,10.4287744 L159.221946,31.7085407 C159.221946,31.7085407 156.900077,36.9205822 156.895377,36.9346561 C156.279658,38.3092089 154.65811,38.9331527 153.285669,38.3185915 L152.547747,37.9902001 L150.474985,42.6299022 L150.474985,42.6299022 L150.474985,42.6299022 L150.484386,42.6345935 L152.261039,43.4274243 C155.593438,44.9145685 159.532155,43.4039678 161.0221,40.0637575 C161.0362,40.0356097 173.167262,12.9714625 174.309396,10.4287744 L168.706829,10.4287744 L168.706829,10.4287744 Z" id="Shape" fill="#000000" fill-rule="nonzero"></path>
    </g>
</svg>