<?xml version="1.0" encoding="UTF-8"?>
<svg width="288px" height="72px" viewBox="0 0 288 72" version="1.1" xmlns="http://www.w3.org/2000/svg" xmlns:xlink="http://www.w3.org/1999/xlink">
    <title>Assets/Windows/product_header_ADM</title>
    <g id="Assets/Windows/product_header_ADM" stroke="none" stroke-width="1" fill="none" fill-rule="evenodd">
        <path d="M119.603413,46.3624457 C122.015056,46.3624457 124.121869,47.5422376 125.102552,49.4242043 L125.376899,49.4242043 L125.376899,46.664735 L128.689099,46.664735 L128.689099,64.1577837 C128.689099,68.0970448 125.55283,70.6 120.599772,70.6 C116.226763,70.6 113.396196,68.6705307 113.026916,65.7530074 L116.56469,65.7530074 C116.853843,67.0606244 118.317029,67.8897607 120.648545,67.8897607 C123.527015,67.8897607 125.231452,66.4862748 125.231452,64.1422374 L125.231452,60.8092821 L124.974523,60.8092821 C123.912843,62.6912488 121.982831,63.7268055 119.571188,63.7268055 C115.100633,63.7268055 112.335386,60.2997088 112.335386,55.1003332 C112.335386,49.8543187 115.132858,46.3624457 119.603413,46.3624457 Z M259.83286,46.3297985 C264.70492,46.3297985 267.647839,49.6307974 267.647839,55.0530034 L267.647839,56.2327952 L255.282179,56.2327952 L255.282179,56.3925767 C255.39453,59.5337941 257.179965,61.5116297 259.945212,61.5116297 C262.036348,61.5116297 263.466438,60.7455423 264.110065,59.3420564 L267.438813,59.3420564 C266.682833,62.4038149 263.853137,64.3177379 259.848537,64.3177379 C254.831901,64.3177379 251.760082,60.8889138 251.760082,55.3561563 C251.760082,49.8544915 254.89635,46.3297985 259.83286,46.3297985 Z M232.358676,46.3302303 C236.297954,46.3302303 238.871594,48.1474207 239.208649,51.1452667 L235.896449,51.1452667 C235.5742,49.8540596 234.320912,49.009377 232.358676,49.009377 C230.428664,49.009377 228.965478,49.9499285 228.965478,51.3525508 C228.965478,52.4217911 229.850357,53.091146 231.748144,53.5376704 L234.658838,54.2070252 C237.986715,54.9731126 239.546575,56.3921449 239.546575,58.9115101 C239.546575,62.1330501 236.475627,64.317306 232.294226,64.317306 C228.130243,64.317306 225.412027,62.4517493 225.106326,59.4383571 L228.563973,59.4383571 C228.998574,60.7934767 230.284087,61.639023 232.375223,61.639023 C234.529068,61.639023 236.057574,60.6501053 236.057574,59.231073 C236.057574,58.1462864 235.237145,57.4441115 233.483935,57.0304071 L230.428664,56.312686 C227.100788,55.5474623 225.556604,54.0800637 225.556604,51.5123322 C225.556604,48.49894 228.402849,46.3302303 232.358676,46.3302303 Z M156.714591,46.3304031 C161.104148,46.3304031 163.580241,48.4991127 163.580241,52.1352209 L163.580241,63.9823695 L160.252365,63.9823695 L160.252365,61.5269169 L159.978888,61.5269169 C158.933756,63.2810584 157.020292,64.2691125 154.720129,64.2691125 C151.34348,64.2691125 148.883064,62.2601843 148.883064,59.1034206 C148.883064,55.9932958 151.231128,54.1916517 155.395982,53.9360013 L160.140013,53.6492583 L160.140013,52.1352209 C160.140013,50.2368442 158.918079,49.1684676 156.553466,49.1684676 C154.624325,49.1684676 153.289169,49.8861887 152.90334,51.1454394 L149.558916,51.1454394 C149.912519,48.2279161 152.743087,46.3304031 156.714591,46.3304031 Z M215.824852,46.3304031 C220.214409,46.3304031 222.690502,48.4991127 222.690502,52.1352209 L222.690502,63.9823695 L219.362626,63.9823695 L219.362626,61.5269169 L219.089149,61.5269169 C218.044017,63.2810584 216.130553,64.2691125 213.830391,64.2691125 C210.453741,64.2691125 207.993325,62.2601843 207.993325,59.1034206 C207.993325,55.9932958 210.34139,54.1916517 214.506243,53.9360013 L219.250274,53.6492583 L219.250274,52.1352209 C219.250274,50.2368442 218.02834,49.1684676 215.663727,49.1684676 C213.734587,49.1684676 212.39943,49.8861887 212.013602,51.1454394 L208.669177,51.1454394 C209.022781,48.2279161 211.853348,46.3304031 215.824852,46.3304031 Z M246.60932,42.2951867 L246.60932,46.7129286 L250.404022,46.7129286 L250.404022,49.4551242 L246.60932,49.4551242 L246.60932,58.5928972 C246.60932,60.4584539 247.365299,61.2720438 249.086284,61.2720438 C249.616689,61.2720438 249.92239,61.2400876 250.404022,61.1917213 L250.404022,63.9183706 C249.841392,64.0142394 249.198636,64.0936983 248.522783,64.0936983 C244.679308,64.0936983 243.151673,62.754125 243.151673,59.4220335 L243.151673,49.4551242 L240.369878,49.4551242 L240.369878,46.7129286 L243.151673,46.7129286 L243.151673,42.2951867 L246.60932,42.2951867 Z M143.6682,42.2951867 L143.6682,46.7129286 L147.462903,46.7129286 L147.462903,49.4551242 L143.6682,49.4551242 L143.6682,58.5928972 C143.6682,60.4584539 144.42418,61.2720438 146.145165,61.2720438 C146.675569,61.2720438 146.981271,61.2400876 147.462903,61.1917213 L147.462903,63.9183706 C146.900273,64.0142394 146.257516,64.0936983 145.581664,64.0936983 C141.738189,64.0936983 140.210553,62.754125 140.210553,59.4220335 L140.210553,49.4551242 L137.428759,49.4551242 L137.428759,46.7129286 L140.210553,46.7129286 L140.210553,42.2951867 L143.6682,42.2951867 Z M62.5465671,4.77903184 C65.9500224,6.29809509 67.9864103,9.80618959 67.994163,14.1625597 C67.9944591,14.3209083 67.9947424,14.4897517 67.9950134,14.6686002 L67.9957893,15.2346703 C67.9959126,15.3338545 67.9960329,15.4354174 67.9961502,15.5392978 L67.9968192,16.1899005 C67.996925,16.3028059 67.9970279,16.4179064 67.997128,16.5351407 L67.9979552,17.6462071 C67.998039,17.7756928 67.9981203,17.9071285 67.9981989,18.040453 L67.9988382,19.2897175 C67.9989018,19.4338236 67.998963,19.5796347 67.9990217,19.7270897 L67.9999244,23.0442787 C67.9999524,23.2117462 67.9999784,23.3804288 68.0000024,23.5502653 L68.0000564,30.6243449 C68.000038,30.8138317 68.0000184,31.0036762 67.9999975,31.1938171 L67.9990482,36.9257365 C67.9990076,37.115682 67.9989662,37.3053116 67.9989241,37.494564 L67.9981049,40.8471364 C67.9980565,41.0296572 67.9980078,41.2114333 67.9979588,41.3924034 L67.9970529,44.5495958 C67.9969509,44.8877839 67.9968489,45.2212785 67.9967473,45.5495895 L67.9950244,53.8690231 C67.9950244,59.255323 65.3987161,61.806816 63.221056,62.9975682 C62.1864952,63.5641963 60.8702513,64 59.2706014,64 C56.7681874,64 53.571472,62.9342392 49.6701181,59.6386303 L34.4962722,47.6802777 C33.2342975,46.6845122 33.0447859,44.8888011 34.0733168,43.6680509 C35.1009863,42.4473007 36.9581996,42.2648131 38.2201743,43.2580788 L53.4345068,55.2489291 C53.4612107,55.2705943 53.488776,55.2922595 53.5146185,55.3155912 C56.4063926,57.7662577 58.9484318,58.7811886 60.3189449,58.0337395 C60.805645,57.7679243 62.0994921,57.0596392 62.0994921,53.8690231 L62.101215,45.5487562 L62.1019744,42.4682077 C62.1020177,42.2907627 62.1020611,42.1123896 62.1021045,41.9331495 L62.1029959,38.0626778 C62.1030365,37.8743015 62.1030766,37.6854869 62.1031163,37.4962953 L62.103949,32.9146486 C62.1039774,32.7233426 62.1040049,32.5321493 62.1040314,32.34113 L62.1040542,22.0614234 C62.1040214,21.8991191 62.1039865,21.738152 62.1039494,21.5785835 L62.1030328,18.8706192 C62.1029674,18.7300375 62.1028994,18.5912218 62.1028288,18.4542332 L62.1021221,17.2723218 C62.1020354,17.1468471 62.101946,17.0233832 62.1018537,16.9019914 L62.1012655,16.1989953 C62.1011617,16.0861366 62.1010549,15.9754725 62.1009451,15.8670641 L62.1002497,15.2441726 C62.1001276,15.1450321 62.1000024,15.0482699 62.099874,14.953947 L62.0990649,14.4177728 C62.0989235,14.3334526 62.0987788,14.2516942 62.0986307,14.172559 C62.0951851,12.096867 61.3388617,10.5211409 60.0760255,9.95701265 C57.2798686,8.70709775 53.9427424,12.1885274 52.6394197,13.7434215 C52.6041016,13.7842521 52.5687836,13.8250826 52.5308813,13.8650799 C50.7305602,15.7814476 45.1899098,22.9286256 39.2104509,30.7584923 L38.5904563,31.5707274 L38.5904563,31.5707274 L37.9681432,32.386714 C37.8642763,32.5229623 37.7603466,32.6593202 37.6563711,32.7957646 L37.0321034,33.6152808 C36.9280122,33.7519774 36.823909,33.8887138 36.7198108,34.0254667 L36.0954158,34.845995 C35.7833832,35.2561713 35.4716996,35.6660763 35.1608218,36.0750803 L34.5402758,36.8917008 C32.8890737,39.0651579 31.2694556,41.2010559 29.7507305,43.2039158 C24.2876291,50.4084253 19.5610385,56.6421676 17.9045352,58.6603635 C13.4863317,64.6607883 9.05434543,64.5291306 6.10744069,63.3550439 C2.2258994,61.8101491 0,57.8787501 0,52.5699448 L0.000861416176,34.3061883 C0.0697747103,29.3390264 1.76331891,26.1409108 5.17797263,24.4910232 C10.1595424,22.0828538 14.5639633,25.02682 17.4428162,27.4508217 L23.1652038,32.160501 C24.4047817,33.1804316 24.5555295,34.980309 23.5002947,36.1802273 C22.4450599,37.3784791 20.5844009,37.5243025 19.3448231,36.5043719 L13.5974543,31.7730274 C9.84167981,28.6107427 8.47202809,29.2731976 7.81304472,29.5923425 C7.20833056,29.8839893 5.94980153,30.4931145 5.89553231,34.3453523 L5.89639373,43.28891 L5.89553231,52.5699448 C5.89553231,54.2631629 6.21511771,57.2312942 8.35142983,58.0820696 C8.93546999,58.3145537 10.4860191,58.9336783 13.1400424,55.3005923 C13.1727762,55.2547621 13.2072328,55.2105984 13.2434123,55.167268 C14.7758717,53.3107277 19.5119378,47.063653 24.997436,39.8308121 C25.4300056,39.2603529 25.8652136,38.686413 26.3021995,38.1101998 L26.9589041,37.2443258 C27.7263639,36.2325024 28.4979503,35.2155655 29.2690501,34.1999851 L29.9297661,33.3299708 L29.9297661,33.3299708 L30.5895982,32.4615265 L30.5895982,32.4615265 L31.247901,31.5955574 C38.69756,21.7986894 45.7281787,12.6531892 48.1109549,10.0903369 C54.6077557,2.38419489 60.3680456,3.80659805 62.5465671,4.77903184 Z M278.456688,46.3619275 C278.971415,46.3619275 279.63072,46.4094301 280,46.4897527 L280,49.710429 C279.710847,49.6309701 278.682262,49.519555 278.070859,49.519555 C275.449318,49.519555 273.600305,51.1933739 273.600305,53.6332802 L273.600305,63.9828014 L270.142658,63.9828014 L270.142658,46.6650805 L273.471405,46.6650805 L273.471405,49.2958609 L273.728333,49.2958609 C274.227384,47.589222 276.173073,46.3619275 278.456688,46.3619275 Z M135.557013,46.6649941 L135.557013,63.982715 L132.115914,63.982715 L132.115914,46.6649941 L135.557013,46.6649941 Z M170.466184,39.8721222 L170.466184,63.982715 L167.008537,63.982715 L167.008537,39.8721222 L170.466184,39.8721222 Z M185.964978,40.9715051 L193.345356,58.9749908 L193.619703,58.9749908 L201.016629,40.9715051 L205.229385,40.9715051 L205.229385,63.9826286 L201.88496,63.9826286 L201.88496,47.1269785 L201.659386,47.1269785 L194.858186,63.5680605 L192.124293,63.5680605 L185.321351,47.1269785 L185.097518,47.1269785 L185.097518,63.9826286 L181.752223,63.9826286 L181.752223,40.9715051 L185.964978,40.9715051 Z M109.787527,46.6649941 L109.787527,63.982715 L106.346428,63.982715 L106.346428,46.6649941 L109.787527,46.6649941 Z M92.5479779,40.971937 C99.431047,40.971937 103.467001,45.1823948 103.467001,52.4217911 C103.467001,59.7406464 99.4632719,63.9821968 92.5479779,63.9821968 L84.1703691,63.9821968 L84.1703691,40.971937 L92.5479779,40.971937 Z M160.140013,56.0891646 L155.862808,56.3767713 C153.450293,56.5356891 152.356388,57.3812354 152.356388,58.9600491 C152.356388,60.5699554 153.72377,61.5113706 155.605008,61.5113706 C158.210001,61.5113706 160.140013,59.820278 160.140013,57.5885195 L160.140013,56.0891646 Z M219.250274,56.0891646 L214.973069,56.3767713 C212.560554,56.5356891 211.466649,57.3812354 211.466649,58.9600491 C211.466649,60.5699554 212.834031,61.5113706 214.71527,61.5113706 C217.320263,61.5113706 219.250274,59.820278 219.250274,57.5885195 L219.250274,56.0891646 Z M92.1464728,44.0492418 L87.7725928,44.0492418 L87.7725928,60.9048919 L92.1464728,60.9048919 C97.0028556,60.9048919 99.8011981,57.8275871 99.8011981,52.4692937 C99.8011981,47.1593666 96.9540827,44.0492418 92.1464728,44.0492418 Z M120.552741,49.2955154 C117.577597,49.2955154 115.905385,51.5600939 115.905385,55.1003332 C115.905385,58.6405725 117.577597,60.888741 120.552741,60.888741 C123.510467,60.888741 125.295902,58.6405725 125.295902,55.1003332 C125.295902,51.5600939 123.49479,49.2955154 120.552741,49.2955154 Z M259.816312,49.1203604 C257.260092,49.1203604 255.475528,50.9712344 255.282179,53.7609326 L264.125742,53.7609326 C264.046486,50.9548244 262.374274,49.1203604 259.816312,49.1203604 Z M108.066542,39.2494063 C109.272799,39.2494063 110.253482,40.2227778 110.253482,41.4189796 C110.253482,42.5987715 109.272799,43.5712793 108.066542,43.5712793 C106.860285,43.5712793 105.879602,42.5987715 105.879602,41.4189796 C105.879602,40.2227778 106.860285,39.2494063 108.066542,39.2494063 Z M133.836899,39.2494063 C135.043157,39.2494063 136.023839,40.2227778 136.023839,41.4189796 C136.023839,42.5987715 135.043157,43.5712793 133.836899,43.5712793 C132.630642,43.5712793 131.649959,42.5987715 131.649959,41.4189796 C131.649959,40.2227778 132.630642,39.2494063 133.836899,39.2494063 Z M132.929115,10.0900644 C137.383992,10.0900644 140.198012,13.5499811 140.198012,19.051646 C140.198012,24.5213545 137.383992,27.9976812 132.961339,27.9976812 C130.469569,27.9976812 128.491656,26.9293045 127.575423,25.0957041 L127.301075,25.0957041 L127.301075,33.4829361 L123.844299,33.4829361 L123.844299,10.3932174 L127.173047,10.3932174 L127.173047,13.2632381 L127.429975,13.2632381 C128.491656,11.2854026 130.549696,10.0900644 132.929115,10.0900644 Z M114.081367,10.0900644 C118.535374,10.0900644 121.349394,13.5499811 121.349394,19.051646 C121.349394,24.5213545 118.535374,27.9976812 114.112721,27.9976812 C111.620951,27.9976812 109.643038,26.9293045 108.725934,25.0957041 L108.452457,25.0957041 L108.452457,33.4829361 L104.995681,33.4829361 L104.995681,10.3932174 L108.324429,10.3932174 L108.324429,13.2632381 L108.581357,13.2632381 C109.643038,11.2854026 111.701078,10.0900644 114.081367,10.0900644 Z M157.042762,10.0576763 C161.914822,10.0576763 164.857741,13.3586752 164.857741,18.7808811 L164.857741,19.960673 L152.492081,19.960673 L152.492081,20.1195908 C152.604433,23.2616719 154.389867,25.2386438 157.155114,25.2386438 C159.24625,25.2386438 160.67634,24.4734201 161.319967,23.0699341 L164.648715,23.0699341 C163.892736,26.1316927 161.063039,28.0456156 157.058439,28.0456156 C152.041803,28.0456156 148.969984,24.6167916 148.969984,19.0831704 C148.969984,13.5823693 152.106253,10.0576763 157.042762,10.0576763 Z M146.311428,3.6 L146.311428,27.7105928 L142.853781,27.7105928 L142.853781,3.6 L146.311428,3.6 Z M94.6385914,4.7002466 L103.017071,27.7105064 L99.1901439,27.7105064 L97.0676538,21.4911204 L88.2232192,21.4911204 L86.0841811,27.7105064 L82.3861536,27.7105064 L90.7637623,4.7002466 L94.6385914,4.7002466 Z M113.116362,13.0239978 C110.205667,13.0239978 108.388879,15.3360789 108.388879,19.051646 C108.388879,22.750803 110.205667,25.0628842 113.099814,25.0628842 C116.042733,25.0628842 117.795943,22.8147156 117.795943,19.051646 C117.795943,15.2885763 116.042733,13.0239978 113.116362,13.0239978 Z M131.96498,13.0239978 C129.054285,13.0239978 127.237497,15.3360789 127.237497,19.051646 C127.237497,22.750803 129.054285,25.0628842 131.948432,25.0628842 C134.891351,25.0628842 136.644561,22.8147156 136.644561,19.051646 C136.644561,15.2885763 134.891351,13.0239978 131.96498,13.0239978 Z M92.7895777,8.76646922 L92.5161013,8.76646922 L89.1394521,18.6210997 L96.1505499,18.6210997 L92.7895777,8.76646922 Z M157.026214,12.8482381 C154.469994,12.8482381 152.68543,14.6982485 152.492081,17.4888104 L161.335644,17.4888104 C161.256389,14.6818385 159.584176,12.8482381 157.026214,12.8482381 Z" id="Shape" fill="#FFFFFF"></path>
    </g>
</svg>