<?xml version="1.0" encoding="UTF-8"?>
<svg width="228px" height="72px" viewBox="0 0 228 72" version="1.1" xmlns="http://www.w3.org/2000/svg" xmlns:xlink="http://www.w3.org/1999/xlink">
    <title>Assets/Windows/product_header_hires-lossless</title>
    <g id="Assets/Windows/product_header_hires-lossless" stroke="none" stroke-width="1" fill="none" fill-rule="evenodd">
        <path d="M30.8900341,4.00008764 C33.228705,4.00008764 35.3198237,4.81949518 37.2156899,6.24097009 C37.8694369,6.7299855 38.6373717,7.4328356 39.1882625,8.00773544 C48.9779058,18.2402515 53.1366083,45.2009506 59.7411962,56.1249239 C60.1740389,56.8396676 60.4954912,57.2833576 60.6861039,57.5380365 L60.7769817,57.6587005 L60.8124696,57.7058984 C62.3195743,59.7101605 63.9626584,60.9002733 65.8332464,60.9002733 C66.4669452,60.9002733 67.1285371,60.7530428 67.8171506,60.4708511 C68.4743843,61.1842177 69.1586395,61.8292273 69.8699162,62.3918579 C68.1466391,63.4925808 66.0624937,64 64.1099694,64 C61.7712985,64 59.6801798,63.1805925 57.7843135,61.7599939 C57.253471,61.3621212 56.4428247,60.6522601 55.8117409,59.9923522 C46.0220977,49.7598362 41.8633952,22.7991371 35.2579356,11.8751638 C33.2679298,8.58614077 30.701755,6.08848141 27.1828528,7.52923649 C26.5247475,6.81499355 25.841364,6.17173672 25.1292156,5.60735334 C26.8524927,4.50750685 28.9366381,4.00008764 30.8900341,4.00008764 Z M126.708677,46.4055037 C131.63002,46.4055037 134.671602,49.7281689 134.671602,55.2025829 C134.671602,60.6769969 131.644312,63.9996621 126.708677,63.9996621 C121.757909,63.9996621 118.730619,60.6769969 118.730619,55.2025829 C118.730619,49.7433756 121.773041,46.4055037 126.708677,46.4055037 Z M43.8552315,4 C52.7266441,4 58.2306788,15.9809749 62.3513771,27.9329485 L62.6271038,28.7385193 C62.6727164,28.8727284 62.7181601,29.0068997 62.7634376,29.1410162 L63.081125,30.0890107 L63.3934851,31.0338347 C64.3227956,33.8622091 65.1831779,36.6296672 66.0015645,39.1731784 C66.3031598,40.1100197 66.6038834,41.0354682 66.9037353,41.9468948 C68.7568901,47.5802121 70.6065583,52.6482697 72.7072653,56.1239599 C73.13438,56.8303154 73.5719546,57.4700668 74.0217326,58.0353265 C75.4617193,59.8459105 77.0289687,60.9001856 78.7984439,60.9001856 C79.9682152,60.9001856 81.2260244,60.4418432 82.5910481,59.4445322 C89.2762904,54.5960702 92.4285892,38.514686 93.4728569,30.026338 L93.5182111,29.6513998 L93.5251844,29.5926829 C93.5705108,29.2149667 93.8895394,28.9371568 94.2591243,28.9371568 C94.2887609,28.9371568 94.3183974,28.9389096 94.3480339,28.9424151 C94.7195801,28.9865988 94.993712,29.3017762 94.9998933,29.6678875 L94.9948076,29.7688336 L94.991321,29.7960011 C93.5243127,39.2301425 91.0871439,55.4482773 84.058928,61.4777146 C82.1177353,63.185763 79.560277,63.9999124 77.0751668,63.9999124 C57.4122007,63.9999124 55.1075247,7.09972672 42.1319545,7.09972672 C41.5017424,7.09972672 40.8436371,7.24520442 40.1593819,7.52389062 C39.4986616,6.80877131 38.8100481,6.17164908 38.0952847,5.60814208 C39.8185618,4.50741922 41.9027072,4 43.8552315,4 Z M213.061864,46.4054192 C216.864262,46.4054192 219.348473,48.1829141 219.673816,51.1152739 L216.476708,51.1152739 C216.165656,49.8522725 214.955917,49.0260415 213.061864,49.0260415 C211.198916,49.0260415 209.786573,49.9452024 209.786573,51.3180299 C209.786573,52.3639134 210.640704,53.0186465 212.472547,53.4554169 L215.282101,54.1101501 C218.494341,54.8595027 220,56.247537 220,58.7118681 C220,61.8630355 217.035761,63.9995776 212.999654,63.9995776 C208.98036,63.9995776 206.356596,62.1747729 206.061517,59.2272065 L209.399019,59.2272065 C209.818519,60.5527243 211.059363,61.3798001 213.077837,61.3798001 C215.15684,61.3798001 216.632234,60.4124847 216.632234,59.0244504 C216.632234,57.9633603 215.840313,57.2765241 214.148023,56.8718568 L211.198916,56.1698138 C207.986676,55.421306 206.496149,53.985962 206.496149,51.4743211 C206.496149,48.5267546 209.243493,46.4054192 213.061864,46.4054192 Z M197.831928,46.4054192 C201.634326,46.4054192 204.118537,48.1829141 204.44388,51.1152739 L201.246772,51.1152739 C200.93572,49.8522725 199.725981,49.0260415 197.831928,49.0260415 C195.96898,49.0260415 194.556637,49.9452024 194.556637,51.3180299 C194.556637,52.3639134 195.410768,53.0186465 197.242611,53.4554169 L200.052165,54.1101501 C203.264405,54.8595027 204.770064,56.247537 204.770064,58.7118681 C204.770064,61.8630355 201.805825,63.9995776 197.769718,63.9995776 C193.750424,63.9995776 191.12666,62.1747729 190.831581,59.2272065 L194.169083,59.2272065 C194.588583,60.5527243 195.829427,61.3798001 197.847901,61.3798001 C199.926904,61.3798001 201.401457,60.4124847 201.401457,59.0244504 C201.401457,57.9633603 200.610377,57.2765241 198.918928,56.8718568 L195.96898,56.1698138 C192.75674,55.421306 191.266213,53.985962 191.266213,51.4743211 C191.266213,48.5267546 194.013557,46.4054192 197.831928,46.4054192 Z M52.8682233,60.9000104 C53.4984354,60.9000104 54.1565407,60.7545327 54.8407959,60.4758465 C55.5015162,61.1918421 56.1901297,61.8289644 56.9048931,62.3924714 C55.181616,63.4923179 53.0974706,63.9997371 51.1440746,63.9997371 C39.3879604,63.9997371 33.5452057,42.9650634 28.9977416,28.8265587 C28.697018,27.8897174 28.3962944,26.9651452 28.0964425,26.0528423 C26.2432877,20.4204013 24.3936195,15.3514674 22.2920409,11.8757772 C21.8657978,11.1694216 21.4282232,10.5305467 20.9784452,9.96441055 C18.4105271,6.73498081 15.6412548,6.1933831 12.4082581,8.55520484 C5.72301572,13.4036669 2.57071692,29.4859018 1.52644926,37.9742749 L1.48109506,38.3492137 L1.47499343,38.4070542 C1.42966697,38.7856468 1.11063844,39.0634566 0.741053474,39.0634566 C0.711416943,39.0634566 0.681780413,39.0617039 0.652143883,39.0581984 C0.279798654,39.0132113 0.00560021811,38.6987034 8.47323334e-05,38.3320342 L0.00537019602,38.2309035 L0.00885684663,38.2046123 C1.47586509,28.7695946 3.91303386,12.5514598 10.9403782,6.52202249 C12.3141185,5.31438228 14.1794766,4.41960677 16.1965039,4.14267331 C37.7318014,1.18053695 39.4428752,60.9000104 52.8682233,60.9000104 Z M143.257472,46.4054192 C147.05987,46.4054192 149.544081,48.1829141 149.869424,51.1152739 L146.672316,51.1152739 C146.361264,49.8522725 145.151525,49.0260415 143.257472,49.0260415 C141.394524,49.0260415 139.982181,49.9452024 139.982181,51.3180299 C139.982181,52.3639134 140.836312,53.0186465 142.668155,53.4554169 L145.477709,54.1101501 C148.689949,54.8595027 150.195608,56.247537 150.195608,58.7118681 C150.195608,61.8630355 147.231369,63.9995776 143.195262,63.9995776 C139.175968,63.9995776 136.552204,62.1747729 136.257126,59.2272065 L139.594627,59.2272065 C140.014127,60.5527243 141.254971,61.3798001 143.273445,61.3798001 C145.352448,61.3798001 146.827842,60.4124847 146.827842,59.0244504 C146.827842,57.9633603 146.035921,57.2765241 144.343631,56.8718568 L141.394524,56.1698138 C138.182284,55.421306 136.691757,53.985962 136.691757,51.4743211 C136.691757,48.5267546 139.439101,46.4054192 143.257472,46.4054192 Z M181.702548,46.4049968 C186.405314,46.4049968 189.245974,49.6338873 189.245974,54.9368035 L189.245974,56.0916683 L177.309992,56.0916683 L177.309992,56.2479594 C177.41844,59.3205588 179.141835,61.2551896 181.810996,61.2551896 C183.829469,61.2551896 185.209867,60.505837 185.83113,59.1330094 L189.044211,59.1330094 C188.3145,62.1278856 185.583129,64 181.71768,64 C176.87536,64 173.91028,60.6460766 173.91028,55.234179 C173.91028,49.8526949 176.937571,46.4049968 181.702548,46.4049968 Z M158.487408,46.4054192 C162.289806,46.4054192 164.774017,48.1829141 165.09936,51.1152739 L161.902252,51.1152739 C161.5912,49.8522725 160.381461,49.0260415 158.487408,49.0260415 C156.62446,49.0260415 155.212117,49.9452024 155.212117,51.3180299 C155.212117,52.3639134 156.066248,53.0186465 157.898091,53.4554169 L160.707645,54.1101501 C163.919885,54.8595027 165.425544,56.247537 165.425544,58.7118681 C165.425544,61.8630355 162.461305,63.9995776 158.425198,63.9995776 C154.405904,63.9995776 151.78214,62.1747729 151.487062,59.2272065 L154.824563,59.2272065 C155.244063,60.5527243 156.484907,61.3798001 158.503381,61.3798001 C160.582384,61.3798001 162.056937,60.4124847 162.056937,59.0244504 C162.056937,57.9633603 161.265857,57.2765241 159.574408,56.8718568 L156.62446,56.1698138 C153.41222,55.421306 151.921693,53.985962 151.921693,51.4743211 C151.921693,48.5267546 154.669037,46.4054192 158.487408,46.4054192 Z M107.444399,41.1637523 L107.444399,60.6300251 L117.936932,60.6300251 L117.936932,63.672211 L103.967344,63.672211 L103.967344,41.1637523 L107.444399,41.1637523 Z M171.342422,40.0880468 L171.342422,63.6719576 L168.00492,63.6719576 L168.00492,40.0880468 L171.342422,40.0880468 Z M126.708677,49.2440887 C123.806647,49.2440887 122.177409,51.4279406 122.177409,55.2025829 C122.177409,58.9772251 123.806647,61.1450255 126.708677,61.1450255 C129.596414,61.1450255 131.241626,58.9611736 131.241626,55.2025829 C131.241626,51.4279406 129.596414,49.2440887 126.708677,49.2440887 Z M62.1611932,51.6762858 C62.5220615,52.4212018 62.8907748,53.1459612 63.2690764,53.8488113 C62.7704854,54.9907236 62.2300545,56.0704135 61.6460406,57.0721064 C61.2171825,56.4972066 60.7961695,55.8460624 60.3830014,55.1274376 C61.0219301,54.0722861 61.6146607,52.9119699 62.1611932,51.6762858 Z M81.2937526,28.9368063 C81.3233891,28.9368063 81.3530256,28.938559 81.3826621,28.9420645 C81.7550074,28.9870516 82.0292058,29.3015595 82.0347213,29.6682288 L82.0294358,29.7693594 L82.0259492,29.7956506 C80.8370013,37.4446228 79.0091247,49.5490688 74.6168166,57.0718435 C74.1853436,56.4960673 73.7634589,55.8440467 73.3494192,55.1236692 C77.5069594,48.2650799 79.6576516,36.8725344 80.494791,30.1355569 L80.553711,29.6510492 L80.5598126,29.5932087 C80.6051391,29.2146161 80.9241676,28.9368063 81.2937526,28.9368063 Z M181.686575,49.1346005 C179.219178,49.1346005 177.496623,50.9441984 177.309992,53.6738021 L185.846262,53.6738021 C185.76976,50.9289917 184.155653,49.1346005 181.686575,49.1346005 Z M68.3286423,28.9368063 C68.3582788,28.9368063 68.3879153,28.938559 68.4175519,28.9420645 C68.7898971,28.9870516 69.0640955,29.3015595 69.069611,29.6682288 L69.0643256,29.7693594 L69.0608389,29.7956506 C68.611061,32.6868008 68.0697585,36.2159497 67.3340752,39.892329 C67.0307366,38.9572404 66.7282697,38.0195226 66.427546,37.0809285 C66.920773,34.518957 67.2817961,32.1264933 67.5291261,30.1392748 L67.5886007,29.6510492 L67.5947023,29.5932087 C67.6400288,29.2146161 67.9590573,28.9368063 68.3286423,28.9368063 Z M20.3830997,10.9289452 C20.8145727,11.5038451 21.2364574,12.1558656 21.6504971,12.8762432 C17.4929569,19.7348325 15.3422647,31.1282131 14.5051253,37.8644151 L14.4462053,38.3488631 L14.4401037,38.40758 C14.3947772,38.7852962 14.0757487,39.0631061 13.7061637,39.0631061 C13.6765272,39.0631061 13.6468907,39.0613533 13.6172542,39.0578478 C13.2449089,39.0128608 12.9707105,38.6983529 12.965195,38.3316836 L12.9704805,38.2305529 L12.9739671,38.2042618 C14.162915,30.5561659 15.9907916,18.4508436 20.3830997,10.9289452 Z M27.6658411,28.1075834 C27.9691797,29.042672 28.2716466,29.9803897 28.5723703,30.9198602 C28.0791433,33.4810228 27.7181202,35.8734242 27.4707902,37.8606379 L27.4113156,38.3488631 L27.405214,38.40758 C27.3598875,38.7852962 27.040859,39.0631061 26.671274,39.0631061 C26.6416375,39.0631061 26.612001,39.0613533 26.5823644,39.0578478 C26.2100192,39.0128608 25.9358208,38.6983529 25.9303053,38.3316836 L25.9355907,38.2305529 L25.9390774,38.2042618 C26.3888553,35.3131115 26.9301578,31.7839627 27.6658411,28.1075834 Z M172.368052,10.9252182 C177.070819,10.9252182 179.911478,14.1541087 179.911478,19.4578697 L179.911478,20.6118897 L167.975496,20.6118897 L167.975496,20.7681808 C168.083944,23.8407802 169.807339,25.775411 172.4765,25.775411 C174.494974,25.775411 175.875371,25.0260584 176.496634,23.6532308 L179.709715,23.6532308 C178.980004,26.648107 176.248633,28.5202214 172.383184,28.5202214 C167.540865,28.5202214 164.575784,25.166298 164.575784,19.7544004 C164.575784,14.3729163 167.603075,10.9252182 172.368052,10.9252182 Z M188.497432,10.9255561 C192.29983,10.9255561 194.784041,12.7030511 195.109384,15.6354108 L191.912276,15.6354108 C191.601224,14.3724094 190.391485,13.5461784 188.497432,13.5461784 C186.634484,13.5461784 185.222141,14.4661841 185.222141,15.8381669 C185.222141,16.8840503 186.076272,17.5387834 187.908115,17.9755538 L190.717669,18.630287 C193.929909,19.3796396 195.435568,20.7676739 195.435568,23.232005 C195.435568,26.3831724 192.471329,28.5197145 188.435222,28.5197145 C184.415928,28.5197145 181.792164,26.6949098 181.497085,23.7473434 L184.834587,23.7473434 C185.254087,25.0728612 186.494931,25.8999371 188.513405,25.8999371 C190.592408,25.8999371 192.066961,24.9326216 192.066961,23.5445873 C192.066961,22.4834972 191.275881,21.796661 189.584432,21.3919937 L186.634484,20.6899508 C183.422244,19.9414429 181.931717,18.5060989 181.931717,15.994458 C181.931717,13.0468916 184.679061,10.9255561 188.497432,10.9255561 Z M107.443726,5.6838892 L107.443726,15.1990628 L118.945917,15.1990628 L118.945917,5.6838892 L122.406999,5.6838892 L122.406999,28.1923479 L118.945917,28.1923479 L118.945917,18.2251972 L107.443726,18.2251972 L107.443726,28.1923479 L103.967513,28.1923479 L103.967513,5.6838892 L107.443726,5.6838892 Z M129.422729,11.2527538 L129.422729,28.192179 L126.101201,28.192179 L126.101201,11.2527538 L129.422729,11.2527538 Z M155.525102,5.68431161 C160.042079,5.68431161 162.944948,8.36745033 162.944948,12.5636563 C162.944948,15.6049974 161.330842,18.0693285 158.599471,18.9893342 L163.628422,28.1927703 L159.608287,28.1927703 L155.044233,19.535086 L150.139703,19.535086 L150.139703,28.1927703 L146.662648,28.1927703 L146.662648,5.68431161 L155.525102,5.68431161 Z M142.980384,17.5702951 L142.980384,20.6741527 L132.798062,20.6741527 L132.798062,17.5702951 L142.980384,17.5702951 Z M172.352079,13.6548219 C169.884682,13.6548219 168.162127,15.4652646 167.975496,18.1940235 L176.511766,18.1940235 C176.435264,15.4492131 174.821158,13.6548219 172.352079,13.6548219 Z M155.044233,8.61751615 L150.139703,8.61751615 L150.139703,16.6652427 L155.137549,16.6652427 C157.823523,16.6652427 159.374578,15.2146919 159.374578,12.6405346 C159.374578,10.1305834 157.729367,8.61751615 155.044233,8.61751615 Z M33.3541372,10.9279812 C33.7838669,11.5020047 34.2040083,12.1540252 34.6163048,12.87265 C33.977376,13.9269252 33.3855171,15.0881177 32.8389846,16.3238018 C32.4781163,15.5788859 32.109403,14.8541265 31.7311014,14.1512764 C32.2288208,13.009364 32.7701233,11.9296741 33.3541372,10.9279812 Z M127.762385,4 C128.926728,4 129.873334,4.95126392 129.873334,6.12133543 C129.873334,7.27535542 128.926728,8.22661934 127.762385,8.22661934 C126.598043,8.22661934 125.651437,7.27535542 125.651437,6.12133543 C125.651437,4.95126392 126.598043,4 127.762385,4 Z" id="Combined-Shape" fill="#020303"></path>
    </g>
</svg>