<svg id="Layer_1" data-name="Layer 1" xmlns="http://www.w3.org/2000/svg" viewBox="0 0 374 350"><g id="Asset_Empty_empty_downloaded" data-name="Asset Empty empty downloaded"><path id="downloaded" d="M78.16,249.67C35,249.67,0,214.36,0,171A78.58,78.58,0,0,1,49.13,98c5.81-30.74,32.76-54,64.69-54a53.23,53.23,0,0,1,10,.83C144.71,17.66,177.26,0,213.74,0c62.41,0,113.41,51.31,113.41,114q0,3-.21,6A66.22,66.22,0,0,1,374,183.62c0,36.35-29.65,66-65.51,66H234.68V218.1h73.81c18.86,0,34-15.58,34-34.48,0-18.69-14.72-34.69-35.45-34.69-5.39,0-9.33-1.66-12-4.57-2.07-2.28-2.9-5.4-2.9-8.93,0-6.85,3.52-12.05,3.52-21.39,0-45.29-36.9-82.47-81.89-82.47A81.56,81.56,0,0,0,144.09,71,14.65,14.65,0,0,1,136,77.69a20.37,20.37,0,0,1-10.57,0A44.35,44.35,0,0,0,113.2,76c-19.49,0-33.59,14.54-33.59,34.07,0,4.36,0,7.48-2.07,10.18-2.08,2.49-6,3.94-10,5a47.15,47.15,0,0,0-36,45.75c0,26,20.94,47.15,46.65,47.15h69.45v31.57ZM191.15,350c-3.94,0-7.05-1.45-11.2-5.19L126.88,296.2a12.73,12.73,0,0,1-4.56-10.2c0-7.89,5.8-13.5,13.89-13.5a15.31,15.31,0,0,1,10.57,4.57L169,299.32l8.09,8.72-1.25-24.92V147.48c0-8.1,7-15,15.35-15a15.35,15.35,0,0,1,15.34,15V283.12L205.24,308l8.09-8.72,22.18-22.23a14.81,14.81,0,0,1,10.37-4.57c8.08,0,14.1,5.61,14.1,13.5a12.73,12.73,0,0,1-4.57,10.18l-53.07,48.61C198.2,348.55,195.09,350,191.15,350Z" style="fill:#fff"/></g></svg>