<?xml version="1.0" encoding="UTF-8"?><svg id="a" xmlns="http://www.w3.org/2000/svg" viewBox="0 0 36 36"><path d="M9.29,23.93l.9,.9,9.58-9.38c-.21-.16-.42-.33-.61-.52-.18-.19-.35-.39-.51-.6l-9.36,9.6Zm9.93-14.93l5.88,5.87c-.94,1.07-2.36,1.57-3.76,1.33l-3.16,3,.12,2.41v6.87c0,.69-.56,1.25-1.25,1.25s-1.25-.56-1.25-1.25v-7.08l-5.31,5c-.32,.29-.8,.29-1.12,0l-1.8,1.37c-.25,.19-.61,.16-.83-.07l-.32-.33c-.23-.21-.26-.57-.07-.82l1.38-1.8c-.3-.32-.3-.82,0-1.14l10.17-10.85c-.23-1.4,.27-2.81,1.32-3.76Zm1.29-1.34c1.46-1.66,3.98-1.83,5.64-.37h0c.12,.1,.23,.21,.33,.32,1.62,1.48,1.75,4,.28,5.63-.11,.12-.23,.23-.35,.34l-5.91-5.92Z" style="opacity:.5;"/></svg>