<?xml version="1.0" encoding="UTF-8"?>
<svg width="92px" height="52px" viewBox="0 0 92 52" version="1.1" xmlns="http://www.w3.org/2000/svg" xmlns:xlink="http://www.w3.org/1999/xlink">
    <title>assets/hd</title>
    <g id="assets/hd" stroke="none" stroke-width="1" fill="none" fill-rule="evenodd">
        <path d="M15.3833112,-6.21504185e-16 L76.6166888,6.21504185e-16 C81.9658012,-3.61111829e-16 83.9055187,0.556953667 85.8610742,1.60279622 C87.8166298,2.64863878 89.3513612,4.18337022 90.3972038,6.13892578 C91.4430463,8.09448133 92,10.0341988 92,15.3833112 L92,36.6166888 C92,41.9658012 91.4430463,43.9055187 90.3972038,45.8610742 C89.3513612,47.8166298 87.8166298,49.3513612 85.8610742,50.3972038 C83.9055187,51.4430463 81.9658012,52 76.6166888,52 L15.3833112,52 C10.0341988,52 8.09448133,51.4430463 6.13892578,50.3972038 C4.18337022,49.3513612 2.64863878,47.8166298 1.60279622,45.8610742 C0.556953667,43.9055187 2.4074122e-16,41.9658012 -4.14336123e-16,36.6166888 L4.14336123e-16,15.3833112 C-2.4074122e-16,10.0341988 0.556953667,8.09448133 1.60279622,6.13892578 C2.64863878,4.18337022 4.18337022,2.64863878 6.13892578,1.60279622 C8.09448133,0.556953667 10.0341988,3.61111829e-16 15.3833112,-6.21504185e-16 Z M44.488125,40 L44.488125,11.8164062 L38.5896875,11.8164062 L38.5896875,23.2617188 L25.894375,23.2617188 L25.894375,11.8164062 L19.9959375,11.8164062 L19.9959375,40 L25.894375,40 L25.894375,28.125 L38.5896875,28.125 L38.5896875,40 L44.488125,40 Z M48.890625,11.8164062 L59.75,11.8164062 C68.2070312,11.8164062 73.1875,16.8554688 73.1875,25.8007812 C73.1875,34.7460938 68.2070312,40 59.75,40 L48.890625,40 L48.890625,11.8164062 Z M54.7890625,16.6796875 L54.7890625,35.1171875 L59.046875,35.1171875 C64.3203125,35.1171875 67.171875,31.9140625 67.171875,25.8203125 C67.171875,19.921875 64.2421875,16.6796875 59.046875,16.6796875 L54.7890625,16.6796875 Z" id="HD" fill="#000000"></path>
    </g>
</svg>