<svg id="Layer_1" data-name="Layer 1" xmlns="http://www.w3.org/2000/svg" viewBox="0 0 36 36"><g id="Asset_Track_track_MIssingArtwork_Music_onLight" data-name="Asset Track track MIssingArtwork Music onLight"><rect id="Rectangle" width="36" height="36" style="fill:#e9e9e9"/><path id="note" d="M14,22V10.8c0-.6.4-.8.9-.9l8.9-1.8c.8-.2,1.3-.1,1.3.9V22.7a3,3,0,0,1-2.88,3.11,2.94,2.94,0,0,1-.42,0,2.24,2.24,0,0,1-2.3-2.18h0c0-1.5,1.1-2.1,2.6-2.4l1.3-.3a1,1,0,0,0,.6-1V13.3c0-.4-.2-.5-.8-.4l-7.5,1.5c-.4.1-.5.2-.5.7v9.5a3.1,3.1,0,0,1-3,3.21h0a2.94,2.94,0,0,1-.42,0,2.24,2.24,0,0,1-2.3-2.18h0c0-1.5,1.1-2.2,2.5-2.5l1.4-.3A.76.76,0,0,0,14,22Z" style="fill-opacity:0.15000000596046448"/></g></svg>