<svg id="Layer_1" data-name="Layer 1" xmlns="http://www.w3.org/2000/svg" viewBox="0 0 64 36"><g id="Asset_Track_track_MissingArtwork_Video_onDark" data-name="Asset Track track MissingArtwork Video onDark"><rect id="Rectangle" width="64" height="36" style="fill:#6e6e6e"/><path id="tv" d="M22.31,8H41.69A2.1,2.1,0,0,1,44,9.84a2.26,2.26,0,0,1,0,.52V21.64A2.08,2.08,0,0,1,42.21,24a1.81,1.81,0,0,1-.52,0H22.31A2.1,2.1,0,0,1,20,22.16a2.26,2.26,0,0,1,0-.52V10.36A2.12,2.12,0,0,1,21.86,8Zm.55,2a.77.77,0,0,0-.86.67.67.67,0,0,0,0,.2V21.13a.78.78,0,0,0,.66.87.67.67,0,0,0,.2,0H41.14a.77.77,0,0,0,.86-.67.67.67,0,0,0,0-.2V10.87a.78.78,0,0,0-.66-.87H22.86ZM39,26a1,1,0,0,1-.89,1H26.89a1,1,0,0,1,0-2H38.11A1,1,0,0,1,39,26Z" style="fill:#ebebf5;fill-opacity:0.30000001192092896"/></g></svg>