<?xml version="1.0" encoding="UTF-8"?>
<svg width="152px" height="72px" viewBox="0 0 152 72" version="1.1" xmlns="http://www.w3.org/2000/svg" xmlns:xlink="http://www.w3.org/1999/xlink">
    <title>Assets/Windows/product_header_DolbyAtmos</title>
    <g id="Assets/Windows/product_header_DolbyAtmos" stroke="none" stroke-width="1" fill="none" fill-rule="evenodd">
        <path d="M33.5575435,44.6393392 L41.9062092,63.9998836 L37.9644524,63.9998836 L36.1578139,59.5698398 L27.7547899,59.5698398 L26.002898,63.9998836 L22.1434553,63.9998836 L30.5740468,44.6393392 L33.5575435,44.6393392 Z M56.7886706,44.6393392 L56.7886706,47.6473937 L50.8488563,47.6473937 L50.8488563,63.9998836 L47.3998191,63.9998836 L47.3998191,47.6473937 L41.4600048,47.6473937 L41.4600048,44.6393392 L56.7886706,44.6393392 Z M66.4840643,44.6393392 L71.5207535,58.3941579 L71.6030676,58.3941579 L76.5846219,44.6393392 L82.0041491,44.6393392 L82.0041491,63.9998836 L78.5830677,63.9998836 L78.5830677,48.4406202 L78.5279328,48.4406202 L72.6428651,63.9998836 L70.2340138,63.9998836 L64.4312601,48.4406202 L64.3765135,48.4406202 L64.3765135,63.9998836 L61.0917162,63.9998836 L61.0917162,44.6393392 L66.4840643,44.6393392 Z M95.9910956,44.6394556 C97.4323683,44.6394556 98.7610417,44.8648173 99.9767273,45.3159285 C101.192025,45.7670397 102.243082,46.4086028 103.128735,47.2413936 C104.014388,48.0741845 104.704739,49.0850149 105.1994,50.2731091 C105.694837,51.4615912 105.941779,52.7932032 105.941779,54.2675572 C105.941779,55.7077772 105.694837,57.0219343 105.1994,58.2100285 C104.704739,59.3985106 104.014388,60.4217534 103.128735,61.2805326 C102.243082,62.1393118 101.192025,62.807639 99.9767273,63.2843507 C98.7610417,63.7614502 97.4323683,64 95.9910956,64 C94.5672951,64 93.2518231,63.7614502 92.0450678,63.2843507 C90.8379242,62.807639 89.795797,62.1393118 88.9190745,61.2805326 C88.0423521,60.4217534 87.3562721,59.3985106 86.8616111,58.2100285 C86.3665619,57.0219343 86.1192314,55.7077772 86.1192314,54.2675572 C86.1192314,52.7932032 86.3665619,51.4615912 86.8616111,50.2731091 C87.3562721,49.0850149 88.0423521,48.0741845 88.9190745,47.2413936 C89.795797,46.4086028 90.8379242,45.7670397 92.0450678,45.3159285 C93.2518231,44.8648173 94.5672951,44.6394556 95.9910956,44.6394556 Z M116.377107,44.6687798 C117.31207,44.6687798 118.260235,44.8336313 119.220437,45.1617826 C120.181803,45.4907098 121.016592,45.9833248 121.726745,46.6404033 L119.597451,48.9754759 C119.250722,48.5259163 118.761885,48.149667 118.130163,47.8471161 C117.498054,47.5449531 116.861673,47.3929018 116.221409,47.3929018 C115.840124,47.3929018 115.459227,47.4409997 115.078719,47.5356438 C114.697822,47.6306758 114.351482,47.7780724 114.040086,47.97667 C113.728302,48.1756554 113.472818,48.4347631 113.274022,48.7551568 C113.074837,49.0751626 112.975439,49.4599453 112.975439,49.9095049 C112.975439,50.3245428 113.061636,50.6794583 113.234806,50.9727 C113.407976,51.2671053 113.645988,51.5180674 113.948842,51.7255863 C114.251695,51.9331052 114.620167,52.1146358 115.052704,52.270178 C115.485242,52.4261081 115.961654,52.5816503 116.481164,52.7371925 C117.069399,52.9276444 117.679766,53.1436968 118.311487,53.3857376 C118.943597,53.6281662 119.523679,53.9477841 120.051731,54.3457549 C120.579395,54.7437258 121.012709,55.2448743 121.350119,55.850364 C121.687917,56.4558537 121.856428,57.2083522 121.856428,58.1074715 C121.856428,59.0930894 121.674716,59.953808 121.311292,60.6884637 C120.947867,61.4238952 120.462913,62.0336517 119.856818,62.5173453 C119.250722,63.0018147 118.540957,63.3652637 117.727523,63.6073044 C116.913701,63.8493452 116.056781,63.9699776 115.156374,63.9699776 C113.962043,63.9699776 112.793727,63.7496585 111.651037,63.3086323 C110.508347,62.8676062 109.573383,62.2151822 108.846534,61.349809 L111.183555,59.1706665 C111.633564,59.7936111 112.235001,60.2862261 112.98864,60.6496751 C113.741503,61.0127362 114.481553,61.1942668 115.208402,61.1942668 C115.589299,61.1942668 115.978738,61.1469447 116.377107,61.0519127 C116.775087,60.9568807 117.134241,60.7970717 117.454955,60.5717101 C117.775281,60.3471242 118.035036,60.065907 118.233833,59.7288342 C118.432629,59.3913735 118.532415,58.972069 118.532415,58.4705326 C118.532415,57.9860633 118.419816,57.5842136 118.195005,57.2642078 C117.969806,56.944202 117.666564,56.6672515 117.286056,56.4341321 C116.904771,56.2006249 116.45515,55.9977606 115.935639,55.8243756 C115.416129,55.6517665 114.870992,55.469848 114.299453,55.279784 C113.745386,55.1071748 113.191708,54.899268 112.637641,54.6568394 C112.083186,54.4147986 111.585807,54.0951807 111.144339,53.6972099 C110.70326,53.299239 110.343718,52.8108908 110.066879,52.2313894 C109.789652,51.651888 109.651426,50.9300325 109.651426,50.0650472 C109.651426,49.1310181 109.84634,48.3269308 110.235778,47.6523974 C110.625217,46.9782519 111.135797,46.4200842 111.767907,45.979058 C112.399629,45.5384198 113.118324,45.2098805 113.923216,44.9930523 C114.728107,44.7773878 115.546201,44.6687798 116.377107,44.6687798 Z M96.0182748,47.7859853 C95.0988421,47.7859853 94.2683242,47.9531641 93.525168,48.2867459 C92.7816234,48.6203277 92.1425246,49.0791966 91.6082597,49.6633526 C91.0736065,50.2475086 90.660483,50.9313513 90.3685011,51.7156564 C90.0757425,52.4999615 89.9297515,53.3513709 89.9297515,54.2687208 C89.9297515,55.2194289 90.0757425,56.0917841 90.3685011,56.8838469 C90.660483,57.6766855 91.0782658,58.3651829 91.6206844,58.948951 C92.1634914,59.533107 92.8068612,59.9877092 93.5500175,60.3131454 C94.2931738,60.6385816 95.1159262,60.8011057 96.0182748,60.8011057 C96.9198468,60.8011057 97.7468702,60.6385816 98.4981802,60.3131454 C99.2498785,59.9877092 99.8971311,59.533107 100.439938,58.948951 C100.982745,58.3651829 101.400139,57.6766855 101.69251,56.8838469 C101.984492,56.0917841 102.131259,55.2194289 102.131259,54.2687208 C102.131259,53.3513709 101.984492,52.4999615 101.69251,51.7156564 C101.400139,50.9313513 100.987016,50.2475086 100.452751,49.6633526 C99.9177097,49.0791966 99.2747281,48.6203277 98.523418,48.2867459 C97.7717197,47.9531641 96.9365426,47.7859853 96.0182748,47.7859853 Z M31.9702798,48.7412317 L28.9316482,56.6168651 L34.9537765,56.6168651 L31.9702798,48.7412317 Z M128.329265,12.608117 L133.850132,25.0084385 L139.37061,12.608117 L144,12.608117 C143.058047,14.710846 133.034756,37.0879783 133.024273,37.1108636 C131.791892,39.8702832 128.541651,41.1188876 125.787236,39.8912291 L125.787236,39.8912291 L124.319172,39.2368657 L124.312183,39.2337626 L124.311795,39.2337626 L124.837906,38.0549776 L126.02253,35.3983477 L126.630567,35.669092 C127.766268,36.175283 129.106201,35.6605585 129.614452,34.5228895 C129.619111,34.5131923 129.621829,34.5031073 129.625711,34.4934101 L129.625711,34.4934101 L131.32208,30.6653651 L131.377992,30.5427932 L131.535243,30.2026173 L123.700263,12.608117 L128.329265,12.608117 Z M100.812526,4.00484857 L100.812526,31.9613304 L96.574516,31.9613304 L96.574516,4.00484857 L100.812526,4.00484857 Z M108.619472,4.00512009 L108.619472,14.3477073 C110.190428,13.2496026 112.099571,12.6029969 114.158199,12.6029969 C119.500071,12.6029969 123.844468,16.9430513 123.844468,22.2795842 C123.844468,27.6161172 119.500071,31.9561715 114.158199,31.9561715 C112.099571,31.9561715 110.190428,31.3095658 108.619472,30.2114611 L108.619472,30.2114611 L108.619472,31.9616019 L104.373696,31.9616019 L104.373308,4.00512009 L108.619472,4.00512009 Z M84.1462175,12.6018721 C89.48809,12.6018721 93.8324868,16.9419264 93.8324868,22.2784593 C93.8324868,27.6149923 89.48809,31.9550466 84.1462175,31.9550466 C78.804345,31.9550466 74.4599482,27.6149923 74.4599482,22.2784593 C74.4599482,16.9419264 78.804345,12.6018721 84.1462175,12.6018721 Z M58.3313217,4 C66.0389471,4 72.3091825,10.2639679 72.3091825,17.9638891 C72.3091825,25.6638103 66.0389471,31.9281661 58.3313217,31.9281661 L58.3313217,31.9281661 L48.2350351,31.9281661 L48.2350351,4 Z M4.12385722,4.00003879 C11.8244937,4.00003879 18.1017181,10.2713765 18.1017181,17.9639279 C18.1017181,25.6568672 11.8244937,31.927817 4.12385722,31.927817 L-1.24344979e-14,31.927817 L-1.24344979e-14,4.00003879 L4.12385722,4.00003879 Z M39.7696155,4.00003879 L39.7696155,31.927817 L35.6457583,31.927817 C27.9451218,31.927817 21.6678975,25.6568672 21.6678975,17.9639279 C21.6678975,10.2713765 27.9451218,4.00003879 35.6457583,4.00003879 L39.7696155,4.00003879 Z M114.158199,16.4093204 C111.592097,16.4093204 109.394855,18.0764536 108.619472,20.4022169 C108.426499,20.9809425 108.318171,21.5988446 108.318171,22.2438987 C108.318171,22.8854618 108.426499,23.5022003 108.619472,24.0817017 C109.389807,26.3931132 111.566859,28.0784771 114.158199,28.0784771 C117.3634,28.0784771 119.998615,25.4815816 119.998615,22.2438987 C119.998615,19.0419014 117.3634,16.4093204 114.158199,16.4093204 Z M84.1462175,16.4081955 C80.9410163,16.4081955 78.3058013,19.005091 78.3058013,22.2427738 C78.3058013,25.4447712 80.9052951,28.0773522 84.1462175,28.0773522 C87.3510304,28.0773522 89.9862454,25.4804567 89.9862454,22.2427738 C89.9862454,19.0407765 87.3510304,16.4081955 84.1462175,16.4081955 Z M58.3313217,8.23416149 L52.4730449,8.23416149 L52.4730449,27.6940046 L58.3313217,27.6940046 C63.6972671,27.6940046 68.0711728,23.3240831 68.0711728,17.9638891 C68.0711728,12.6036951 63.6972671,8.23416149 58.3313217,8.23416149 L58.3313217,8.23416149 Z" id="Shape" fill="#000000"></path>
    </g>
</svg>